<?xml version="1.0" encoding="utf-8"?>
<!-- Generator: Adobe Illustrator 27.5.0, SVG Export Plug-In . SVG Version: 6.00 Build 0)  -->
<svg version="1.1" id="Ñëîé_1" xmlns="http://www.w3.org/2000/svg" xmlns:xlink="http://www.w3.org/1999/xlink" x="0px" y="0px"
	 viewBox="0 0 2398.684 2200" style="enable-background:new 0 0 2398.684 2200;" xml:space="preserve">
<rect x="0" y="0" style="fill:#FFFFFF;" width="2398.684" height="2200"/>
<g>
	<path style="fill:#322A28;" d="M687.271,291.046h23.477l15.606,62.698h0.276l20.438-62.698h20.025l20.301,64.355h0.276
		l16.434-64.355h21.82l-28.587,97.775h-19.196l-21.543-67.669h-0.276l-21.544,67.669h-18.506L687.271,291.046z"/>
	<path style="fill:#322A28;" d="M894.009,377.22c-3.314,4.236-7.505,7.505-12.567,9.805c-5.065,2.3-10.313,3.453-15.743,3.453
		c-5.157,0-10.012-0.829-14.57-2.486c-4.558-1.658-8.517-4.026-11.877-7.112c-3.362-3.083-6.007-6.789-7.941-11.117
		c-1.934-4.327-2.9-9.159-2.9-14.501c0-5.338,0.966-10.172,2.9-14.501c1.934-4.326,4.579-8.031,7.941-11.116
		c3.359-3.084,7.319-5.456,11.877-7.112c4.558-1.658,9.413-2.486,14.57-2.486c4.786,0,9.135,0.829,13.05,2.486
		c3.913,1.657,7.227,4.028,9.943,7.112c2.715,3.085,4.81,6.791,6.284,11.116c1.471,4.328,2.209,9.162,2.209,14.501v6.491h-48.06
		c0.829,3.959,2.625,7.112,5.386,9.46c2.763,2.348,6.167,3.521,10.219,3.521c3.405,0,6.283-0.759,8.632-2.278
		c2.348-1.519,4.395-3.474,6.145-5.87L894.009,377.22z M876.471,347.667c0.091-3.498-1.06-6.49-3.453-8.977
		c-2.396-2.485-5.479-3.729-9.253-3.729c-2.302,0-4.328,0.37-6.076,1.105c-1.75,0.738-3.246,1.682-4.488,2.831
		c-1.243,1.153-2.21,2.486-2.9,4.005c-0.69,1.519-1.083,3.107-1.174,4.764H876.471z"/>
	<path style="fill:#322A28;" d="M911.685,284.417H932.4v44.468h0.276c2.393-3.222,5.456-5.5,9.184-6.836
		c3.729-1.333,7.755-2.002,12.085-2.002c4.786,0,9.067,0.991,12.843,2.97c3.774,1.981,6.974,4.626,9.597,7.941
		c2.624,3.314,4.648,7.112,6.076,11.393c1.427,4.281,2.141,8.77,2.141,13.465c0,5.065-0.784,9.715-2.348,13.948
		c-1.566,4.236-3.797,7.896-6.697,10.98c-2.9,3.085-6.377,5.479-10.427,7.18c-4.052,1.703-8.562,2.556-13.534,2.556
		c-2.395,0-4.65-0.324-6.767-0.967c-2.119-0.645-4.073-1.472-5.87-2.485c-1.795-1.013-3.361-2.141-4.695-3.383
		c-1.335-1.244-2.417-2.462-3.245-3.66h-0.276v8.838h-19.058V284.417z M930.743,355.262c0,5.065,1.45,9.162,4.35,12.292
		c2.9,3.131,6.974,4.695,12.222,4.695c5.248,0,9.321-1.564,12.221-4.695c2.9-3.129,4.351-7.227,4.351-12.292
		c0-5.062-1.451-9.159-4.351-12.291c-2.9-3.129-6.974-4.695-12.221-4.695c-5.248,0-9.322,1.566-12.222,4.695
		C932.193,346.103,930.743,350.2,930.743,355.262z"/>
	<path style="fill:#322A28;" d="M1040.254,291.046h32.316c7.823,0,15.26,0.876,22.303,2.624c7.043,1.75,13.189,4.581,18.436,8.493
		c5.248,3.914,9.413,9,12.499,15.26c3.083,6.262,4.626,13.858,4.626,22.786c0,7.92-1.498,14.893-4.488,20.923
		c-2.992,6.031-7.022,11.095-12.084,15.191c-5.065,4.098-10.91,7.206-17.538,9.322c-6.629,2.12-13.581,3.176-20.853,3.176h-35.216
		V291.046z M1061.798,368.934h11.186c4.971,0,9.598-0.504,13.879-1.519c4.281-1.012,7.986-2.693,11.117-5.041
		c3.129-2.348,5.593-5.431,7.388-9.253c1.795-3.819,2.693-8.492,2.693-14.016c0-4.787-0.898-8.954-2.693-12.499
		c-1.795-3.543-4.212-6.467-7.25-8.77c-3.039-2.299-6.608-4.026-10.703-5.178c-4.098-1.15-8.402-1.726-12.912-1.726h-12.705V368.934
		z"/>
	<path style="fill:#322A28;" d="M1205.973,377.22c-3.314,4.236-7.505,7.505-12.567,9.805c-5.065,2.3-10.313,3.453-15.743,3.453
		c-5.157,0-10.012-0.829-14.57-2.486c-4.557-1.658-8.517-4.026-11.877-7.112c-3.362-3.083-6.007-6.789-7.941-11.117
		c-1.934-4.327-2.9-9.159-2.9-14.501c0-5.338,0.966-10.172,2.9-14.501c1.934-4.326,4.579-8.031,7.941-11.116
		c3.359-3.084,7.319-5.456,11.877-7.112c4.558-1.658,9.413-2.486,14.57-2.486c4.786,0,9.135,0.829,13.05,2.486
		c3.913,1.657,7.227,4.028,9.943,7.112c2.715,3.085,4.81,6.791,6.284,11.116c1.471,4.328,2.209,9.162,2.209,14.501v6.491h-48.059
		c0.829,3.959,2.625,7.112,5.386,9.46c2.762,2.348,6.167,3.521,10.219,3.521c3.406,0,6.283-0.759,8.632-2.278
		c2.348-1.519,4.395-3.474,6.145-5.87L1205.973,377.22z M1188.434,347.667c0.09-3.498-1.06-6.49-3.453-8.977
		c-2.396-2.485-5.479-3.729-9.253-3.729c-2.302,0-4.328,0.37-6.077,1.105c-1.75,0.738-3.246,1.682-4.488,2.831
		c-1.243,1.153-2.21,2.486-2.9,4.005c-0.69,1.519-1.083,3.107-1.174,4.764H1188.434z"/>
	<path style="fill:#322A28;" d="M1214.672,321.704h22.372l16.987,45.573h0.276l15.743-45.573h20.853l-26.516,67.117h-21.957
		L1214.672,321.704z"/>
	<path style="fill:#322A28;" d="M1362.026,377.22c-3.314,4.236-7.505,7.505-12.567,9.805c-5.065,2.3-10.313,3.453-15.743,3.453
		c-5.157,0-10.012-0.829-14.57-2.486c-4.558-1.658-8.518-4.026-11.877-7.112c-3.362-3.083-6.007-6.789-7.941-11.117
		c-1.934-4.327-2.9-9.159-2.9-14.501c0-5.338,0.966-10.172,2.9-14.501c1.934-4.326,4.579-8.031,7.941-11.116
		c3.359-3.084,7.319-5.456,11.877-7.112c4.557-1.658,9.413-2.486,14.57-2.486c4.786,0,9.135,0.829,13.05,2.486
		c3.913,1.657,7.227,4.028,9.943,7.112c2.715,3.085,4.81,6.791,6.284,11.116c1.471,4.328,2.209,9.162,2.209,14.501v6.491h-48.059
		c0.829,3.959,2.625,7.112,5.386,9.46c2.762,2.348,6.167,3.521,10.219,3.521c3.405,0,6.283-0.759,8.632-2.278
		c2.348-1.519,4.395-3.474,6.145-5.87L1362.026,377.22z M1344.487,347.667c0.09-3.498-1.06-6.49-3.453-8.977
		c-2.396-2.485-5.479-3.729-9.253-3.729c-2.302,0-4.328,0.37-6.076,1.105c-1.75,0.738-3.246,1.682-4.488,2.831
		c-1.243,1.153-2.21,2.486-2.9,4.005c-0.69,1.519-1.083,3.107-1.174,4.764H1344.487z"/>
	<path style="fill:#322A28;" d="M1378.043,284.417h20.716v104.404h-20.716V284.417z"/>
	<path style="fill:#322A28;" d="M1411.187,355.262c0-5.338,0.966-10.172,2.9-14.501c1.933-4.326,4.579-8.031,7.941-11.116
		c3.359-3.084,7.319-5.456,11.876-7.112c4.558-1.658,9.413-2.486,14.57-2.486c5.155,0,10.012,0.829,14.57,2.486
		c4.557,1.657,8.515,4.028,11.877,7.112c3.359,3.085,6.007,6.791,7.941,11.116c1.933,4.328,2.9,9.162,2.9,14.501
		c0,5.341-0.967,10.174-2.9,14.501c-1.934,4.328-4.582,8.034-7.941,11.117c-3.362,3.086-7.319,5.455-11.877,7.112
		c-4.558,1.657-9.415,2.486-14.57,2.486c-5.157,0-10.012-0.829-14.57-2.486c-4.557-1.658-8.517-4.026-11.876-7.112
		c-3.362-3.083-6.008-6.789-7.941-11.117C1412.154,365.436,1411.187,360.603,1411.187,355.262z M1431.902,355.262
		c0,5.065,1.451,9.162,4.351,12.292c2.9,3.131,6.974,4.695,12.221,4.695c5.248,0,9.322-1.564,12.222-4.695
		c2.9-3.129,4.35-7.227,4.35-12.292c0-5.062-1.449-9.159-4.35-12.291c-2.9-3.129-6.974-4.695-12.222-4.695
		c-5.248,0-9.321,1.566-12.221,4.695C1433.353,346.103,1431.902,350.2,1431.902,355.262z"/>
	<path style="fill:#322A28;" d="M1499.845,321.704h19.058v8.838h0.276c0.828-1.195,1.91-2.417,3.245-3.66
		c1.334-1.243,2.9-2.37,4.695-3.383c1.796-1.013,3.751-1.84,5.87-2.486c2.117-0.643,4.372-0.966,6.767-0.966
		c4.972,0,9.482,0.852,13.534,2.555c4.05,1.705,7.527,4.098,10.427,7.182c2.9,3.086,5.131,6.745,6.697,10.979
		c1.564,4.236,2.348,8.886,2.348,13.948c0,4.696-0.714,9.185-2.141,13.465c-1.428,4.281-3.453,8.079-6.077,11.393
		c-2.624,3.315-5.823,5.962-9.597,7.941c-3.776,1.979-8.057,2.969-12.843,2.969c-4.33,0-8.356-0.669-12.085-2.003
		c-3.728-1.333-6.791-3.611-9.183-6.836h-0.276v38.669h-20.715V321.704z M1518.904,355.262c0,5.065,1.45,9.162,4.35,12.292
		c2.9,3.131,6.974,4.695,12.222,4.695c5.248,0,9.321-1.564,12.221-4.695c2.9-3.129,4.351-7.227,4.351-12.292
		c0-5.062-1.451-9.159-4.351-12.291c-2.9-3.129-6.974-4.695-12.221-4.695c-5.248,0-9.322,1.566-12.222,4.695
		C1520.353,346.103,1518.904,350.2,1518.904,355.262z"/>
	<path style="fill:#322A28;" d="M1648.441,377.22c-3.314,4.236-7.505,7.505-12.567,9.805c-5.065,2.3-10.313,3.453-15.743,3.453
		c-5.157,0-10.012-0.829-14.57-2.486c-4.558-1.658-8.517-4.026-11.877-7.112c-3.362-3.083-6.007-6.789-7.941-11.117
		c-1.934-4.327-2.9-9.159-2.9-14.501c0-5.338,0.966-10.172,2.9-14.501c1.934-4.326,4.579-8.031,7.941-11.116
		c3.359-3.084,7.319-5.456,11.877-7.112c4.558-1.658,9.413-2.486,14.57-2.486c4.786,0,9.135,0.829,13.05,2.486
		c3.913,1.657,7.227,4.028,9.943,7.112c2.715,3.085,4.81,6.791,6.284,11.116c1.471,4.328,2.209,9.162,2.209,14.501v6.491h-48.059
		c0.829,3.959,2.625,7.112,5.386,9.46c2.762,2.348,6.167,3.521,10.219,3.521c3.405,0,6.283-0.759,8.632-2.278
		c2.348-1.519,4.395-3.474,6.145-5.87L1648.441,377.22z M1630.902,347.667c0.091-3.498-1.06-6.49-3.453-8.977
		c-2.396-2.485-5.479-3.729-9.253-3.729c-2.302,0-4.329,0.37-6.077,1.105c-1.75,0.738-3.246,1.682-4.488,2.831
		c-1.243,1.153-2.21,2.486-2.9,4.005c-0.69,1.519-1.083,3.107-1.174,4.764H1630.902z"/>
	<path style="fill:#322A28;" d="M1664.183,321.704h20.716v10.772h0.276c2.209-4.144,4.833-7.251,7.872-9.322
		c3.038-2.071,6.857-3.107,11.462-3.107c1.195,0,2.393,0.047,3.591,0.138c1.195,0.093,2.299,0.276,3.314,0.553v18.921
		c-1.474-0.46-2.924-0.806-4.35-1.037c-1.429-0.228-2.924-0.345-4.488-0.345c-3.96,0-7.091,0.552-9.391,1.656
		c-2.302,1.105-4.073,2.648-5.317,4.627c-1.243,1.981-2.049,4.35-2.416,7.112c-0.37,2.761-0.552,5.8-0.552,9.114v28.035h-20.716
		V321.704z"/>
</g>
<g>
	<path style="fill:#E5F0F8;" d="M445.637,2002.745c0,0-604.051-1565.31,504.448-1459.355
		c474.777,45.381,386.145,320.698,595.833,578.3c135.917,166.975,397.327,30.379,495.289,176.287
		c97.961,145.908-17.159,561.945-57.541,704.769H445.637z"/>
	<g>
		<path style="fill:#BBDBF3;" d="M1876,568.658h-701.427c-8.304,0-15.036,11.022-15.036,24.618v56.999v507.111h731.499V650.274
			v-56.999C1891.036,579.68,1884.304,568.658,1876,568.658z"/>
		<rect x="1169.314" y="623.987" style="fill:#E5F0F8;" width="711.943" height="524.334"/>
		<path style="fill:#FFFFFF;" d="M1199.952,677.623v-5.507l31.793-17.206v8.412l-21.237,11.548l21.237,11.548v8.412
			L1199.952,677.623z"/>
		<path style="fill:#FFFFFF;" d="M1819.428,1134.719v-8.411l21.237-11.548l-21.237-11.548v-8.411l31.793,17.206v5.507
			L1819.428,1134.719z"/>
		<rect x="1243.537" y="668.375" style="fill:#FFFFFF;" width="126.437" height="12.99"/>
		<rect x="1199.952" y="718.572" style="fill:#FFFFFF;" width="126.437" height="12.99"/>
		<rect x="1226.885" y="753.541" style="fill:#FFFFFF;" width="126.437" height="12.99"/>
		<rect x="1226.885" y="849.785" style="fill:#FFFFFF;" width="126.437" height="12.99"/>
		<rect x="1226.885" y="879.557" style="fill:#FFFFFF;" width="126.437" height="12.99"/>
		<rect x="1270.331" y="786.846" style="fill:#FFFFFF;" width="381.306" height="12.99"/>
		<rect x="1270.331" y="911.188" style="fill:#FFFFFF;" width="509.393" height="12.99"/>
		<rect x="1270.331" y="1010.775" style="fill:#FFFFFF;" width="509.393" height="12.99"/>
		<rect x="1318.24" y="1108.264" style="fill:#FFFFFF;" width="488.022" height="12.99"/>
		<rect x="1270.331" y="1044.613" style="fill:#FFFFFF;" width="109.105" height="12.99"/>
		<rect x="1270.331" y="1076.8" style="fill:#FFFFFF;" width="109.105" height="12.99"/>
		<rect x="1270.331" y="942.978" style="fill:#FFFFFF;" width="509.393" height="12.99"/>
		<rect x="1270.331" y="974.768" style="fill:#FFFFFF;" width="275.605" height="12.99"/>
		<rect x="1270.331" y="816.781" style="fill:#FFFFFF;" width="116.922" height="12.99"/>
		<g>
			
				<line style="fill:none;stroke:#FFFFFF;stroke-width:5.1898;stroke-linecap:round;stroke-linejoin:round;stroke-miterlimit:10;" x1="1830.555" y1="613.211" x2="1862.918" y2="580.848"/>
			
				<line style="fill:none;stroke:#FFFFFF;stroke-width:5.1898;stroke-linecap:round;stroke-linejoin:round;stroke-miterlimit:10;" x1="1862.918" y1="613.211" x2="1830.555" y2="580.848"/>
		</g>
	</g>
	<g>
		<path style="fill:#40A87B;" d="M409.311,2007.992c0,0-29.647-118.26-103.549-154.758c-73.902-36.497-152.779,13.47-132.75,66.012
			c17.27,45.307,88.287-10.402,143.542,11.505s63.965,77.24,63.965,77.24H409.311z"/>
		<path style="fill:none;stroke:#6ADB6A;stroke-width:3.3301;stroke-miterlimit:10;" d="M187.296,1887.738
			c0,0,79.316-45.202,138.164-3.411c58.848,41.79,77.471,123.665,77.471,123.665"/>
		
			<line style="fill:none;stroke:#6ADB6A;stroke-width:3.3301;stroke-miterlimit:10;" x1="200.089" y1="1866.598" x2="218.543" y2="1874.643"/>
		
			<line style="fill:none;stroke:#6ADB6A;stroke-width:3.3301;stroke-miterlimit:10;" x1="226.742" y1="1849.359" x2="263.497" y2="1866.598"/>
		
			<line style="fill:none;stroke:#6ADB6A;stroke-width:3.3301;stroke-miterlimit:10;" x1="281.965" y1="1849.359" x2="301.087" y2="1871.948"/>
		
			<line style="fill:none;stroke:#6ADB6A;stroke-width:3.3301;stroke-miterlimit:10;" x1="318.211" y1="1864.497" x2="326.807" y2="1885.3"/>
		
			<line style="fill:none;stroke:#6ADB6A;stroke-width:3.3301;stroke-miterlimit:10;" x1="209.316" y1="1916.522" x2="237.645" y2="1869.655"/>
		
			<line style="fill:none;stroke:#6ADB6A;stroke-width:3.3301;stroke-miterlimit:10;" x1="259.364" y1="1909.806" x2="285.346" y2="1868.078"/>
		
			<line style="fill:none;stroke:#6ADB6A;stroke-width:3.3301;stroke-miterlimit:10;" x1="303.499" y1="1903.409" x2="342.56" y2="1898.555"/>
		
			<line style="fill:none;stroke:#6ADB6A;stroke-width:3.3301;stroke-miterlimit:10;" x1="348.974" y1="1927.076" x2="371.364" y2="1934.427"/>
	</g>
	<g>
		<path style="fill:#6ADB6A;" d="M442.462,2004.268c0,0,20.92-396.404-168.416-345.321
			c-189.336,51.083,147.693,264.725,147.406,345.321H442.462z"/>
		<path style="fill:none;stroke:#40A87B;stroke-width:3.3301;stroke-miterlimit:10;" d="M434.811,2004.268
			c0,0-6.611-207.108-141.576-309.515"/>
		
			<line style="fill:none;stroke:#40A87B;stroke-width:3.3301;stroke-miterlimit:10;" x1="352.43" y1="1754.805" x2="349.058" y2="1683.388"/>
		
			<line style="fill:none;stroke:#40A87B;stroke-width:3.3301;stroke-miterlimit:10;" x1="246.541" y1="1725.213" x2="337.766" y2="1737.104"/>
		
			<line style="fill:none;stroke:#40A87B;stroke-width:3.3301;stroke-miterlimit:10;" x1="282.018" y1="1786.166" x2="378.471" y2="1797.403"/>
		
			<line style="fill:none;stroke:#40A87B;stroke-width:3.3301;stroke-miterlimit:10;" x1="330.244" y1="1846.569" x2="404.743" y2="1857.097"/>
		
			<line style="fill:none;stroke:#40A87B;stroke-width:3.3301;stroke-miterlimit:10;" x1="411.89" y1="1790.13" x2="394.815" y2="1831.616"/>
		
			<line style="fill:none;stroke:#40A87B;stroke-width:3.3301;stroke-miterlimit:10;" x1="383.831" y1="1722.798" x2="369.274" y2="1781.206"/>
		
			<line style="fill:none;stroke:#40A87B;stroke-width:3.3301;stroke-miterlimit:10;" x1="427.831" y1="1859.388" x2="414.227" y2="1886.503"/>
		
			<line style="fill:none;stroke:#40A87B;stroke-width:3.3301;stroke-miterlimit:10;" x1="369.274" y1="1902.564" x2="422.658" y2="1919.395"/>
	</g>
	<g>
		<path style="fill:#40A87B;" d="M1978.443,2006.113c0,0,31-123.659,108.276-161.822c77.276-38.163,159.753,14.085,138.81,69.026
			c-18.059,47.375-92.317-10.877-150.094,12.031c-57.777,22.907-66.885,80.766-66.885,80.766H1978.443z"/>
		<path style="fill:none;stroke:#6ADB6A;stroke-width:3.4821;stroke-miterlimit:10;" d="M2210.592,1880.369
			c0,0-82.937-47.265-144.471-3.567s-81.008,129.311-81.008,129.311"/>
		
			<line style="fill:none;stroke:#6ADB6A;stroke-width:3.4821;stroke-miterlimit:10;" x1="2197.215" y1="1858.264" x2="2177.918" y2="1866.677"/>
		
			<line style="fill:none;stroke:#6ADB6A;stroke-width:3.4821;stroke-miterlimit:10;" x1="2169.346" y1="1840.238" x2="2130.912" y2="1858.264"/>
		
			<line style="fill:none;stroke:#6ADB6A;stroke-width:3.4821;stroke-miterlimit:10;" x1="2111.602" y1="1840.238" x2="2091.607" y2="1863.858"/>
		
			<line style="fill:none;stroke:#6ADB6A;stroke-width:3.4821;stroke-miterlimit:10;" x1="2073.701" y1="1856.068" x2="2064.712" y2="1877.82"/>
		
			<line style="fill:none;stroke:#6ADB6A;stroke-width:3.4821;stroke-miterlimit:10;" x1="2187.567" y1="1910.467" x2="2157.944" y2="1861.461"/>
		
			<line style="fill:none;stroke:#6ADB6A;stroke-width:3.4821;stroke-miterlimit:10;" x1="2135.235" y1="1903.444" x2="2108.066" y2="1859.812"/>
		
			<line style="fill:none;stroke:#6ADB6A;stroke-width:3.4821;stroke-miterlimit:10;" x1="2089.084" y1="1896.756" x2="2048.24" y2="1891.68"/>
		
			<line style="fill:none;stroke:#6ADB6A;stroke-width:3.4821;stroke-miterlimit:10;" x1="2041.534" y1="1921.503" x2="2018.122" y2="1929.19"/>
	</g>
	<g>
		<path style="fill:#6ADB6A;" d="M1943.778,2002.219c0,0-21.874-414.499,176.105-361.085
			c197.979,53.414-154.435,276.81-154.135,361.085H1943.778z"/>
		<path style="fill:none;stroke:#40A87B;stroke-width:3.4821;stroke-miterlimit:10;" d="M1951.778,2002.219
			c0,0,6.913-216.562,148.038-323.645"/>
		
			<line style="fill:none;stroke:#40A87B;stroke-width:3.4821;stroke-miterlimit:10;" x1="2037.92" y1="1741.369" x2="2041.445" y2="1666.691"/>
		
			<line style="fill:none;stroke:#40A87B;stroke-width:3.4821;stroke-miterlimit:10;" x1="2148.643" y1="1710.426" x2="2053.254" y2="1722.859"/>
		
			<line style="fill:none;stroke:#40A87B;stroke-width:3.4821;stroke-miterlimit:10;" x1="2111.547" y1="1774.161" x2="2010.69" y2="1785.911"/>
		
			<line style="fill:none;stroke:#40A87B;stroke-width:3.4821;stroke-miterlimit:10;" x1="2061.118" y1="1837.321" x2="1983.218" y2="1848.33"/>
		
			<line style="fill:none;stroke:#40A87B;stroke-width:3.4821;stroke-miterlimit:10;" x1="1975.745" y1="1778.306" x2="1993.6" y2="1821.686"/>
		
			<line style="fill:none;stroke:#40A87B;stroke-width:3.4821;stroke-miterlimit:10;" x1="2005.085" y1="1707.901" x2="2020.307" y2="1768.975"/>
		
			<line style="fill:none;stroke:#40A87B;stroke-width:3.4821;stroke-miterlimit:10;" x1="1959.077" y1="1850.725" x2="1973.302" y2="1879.078"/>
		
			<line style="fill:none;stroke:#40A87B;stroke-width:3.4821;stroke-miterlimit:10;" x1="2020.307" y1="1895.873" x2="1964.486" y2="1913.472"/>
	</g>
	<g>
		<path style="fill:#93ACBF;" d="M348.189,1101.097l-37.133,29.918c-3.865,3.114-5.77,8.37-4.907,13.539l142.126,852.021h51.26
			L348.189,1101.097z"/>
		<path style="fill:#BBDBF3;" d="M499.534,1996.575h968.633l-158.241-884.985c-1.55-8.668-8.485-14.92-16.548-14.92H359.111
			c-10.614,0-18.588,10.612-16.548,22.021L499.534,1996.575z"/>
		<polygon style="fill:#93ACBF;" points="394.235,1140.586 396.993,1156.08 529.283,1895.911 1403.402,1895.678 1416.168,1895.678 
			1281.155,1140.586 		"/>
		<polygon style="fill:#FFFFFF;" points="396.993,1156.08 529.283,1895.911 1403.402,1895.678 1268.354,1156.08 		"/>
		
			<rect x="852.544" y="1929.029" transform="matrix(-1 -1.224647e-16 1.224647e-16 -1 2668.1199 3925.604)" style="fill:#BBDBF3;" width="963.033" height="67.547"/>
		<path style="fill:#93ACBF;" d="M450.221,1996.575h469.727v-56.285c0-6.219-5.042-11.261-11.261-11.261H450.221V1996.575z"/>
		<path style="fill:#586773;" d="M841.576,1121.271c0.564,6.46,4.048,11.381,7.784,10.99c3.735-0.391,6.307-5.945,5.743-12.406
			s-4.048-11.381-7.784-10.99C843.584,1109.257,841.012,1114.811,841.576,1121.271z"/>
		<g>
			<polygon style="fill:#E5F0F8;" points="1268.715,1160.026 1403.386,1895.831 529.007,1895.831 397.697,1160.026 			"/>
			<polygon style="fill:#BBDBF3;" points="1267.993,1156.08 1279.592,1219.449 408.302,1219.449 396.993,1156.08 			"/>
			<g>
				
					<line style="fill:none;stroke:#FFFFFF;stroke-width:5.5014;stroke-linecap:round;stroke-linejoin:round;stroke-miterlimit:10;" x1="1222.209" y1="1206.827" x2="1250.271" y2="1172.641"/>
				
					<line style="fill:none;stroke:#FFFFFF;stroke-width:5.5014;stroke-linecap:round;stroke-linejoin:round;stroke-miterlimit:10;" x1="1256.524" y1="1206.827" x2="1215.962" y2="1172.641"/>
			</g>
		</g>
		<g>
			<path style="fill:#FFFFFF;" d="M1132.229,1009.112c0-110.037-25.854-203.011-57.509-275.63H959.316l0,473.84h161.47
				C1128.512,1148.929,1132.229,1082.82,1132.229,1009.112z"/>
			<path style="fill:#BBDBF3;" d="M845.823,733.482c-31.65,72.614-57.498,165.593-57.498,275.63
				c0,73.708,3.716,139.817,11.442,198.21h159.549l0-473.84L845.823,733.482z"/>
			<path style="fill:#F74242;" d="M959.316,961.748c-35.126,0-63.704-28.579-63.704-63.705s28.577-63.705,63.704-63.705
				c35.126,0,63.705,28.579,63.705,63.705C1023.021,933.169,994.443,961.748,959.316,961.748z"/>
			<path style="fill:#BBDBF3;" d="M959.316,943c-24.789,0-44.956-20.168-44.956-44.958c0-24.789,20.167-44.958,44.956-44.958
				c24.789,0,44.959,20.168,44.959,44.958C1004.276,922.832,984.106,943,959.316,943z"/>
			
				<ellipse transform="matrix(0.7071 -0.7071 0.7071 0.7071 -354.0348 941.3697)" style="fill:#FFFFFF;" cx="959.316" cy="898.043" rx="35.584" ry="35.584"/>
			<path style="fill:#F74242;" d="M959.316,1142.941c-35.126,0-63.704-28.579-63.704-63.705s28.577-63.705,63.704-63.705
				c35.126,0,63.705,28.579,63.705,63.705C1023.021,1114.362,994.443,1142.941,959.316,1142.941z"/>
			<path style="fill:#BBDBF3;" d="M959.316,1124.193c-24.79,0-44.956-20.168-44.956-44.958s20.167-44.958,44.956-44.958
				s44.959,20.168,44.959,44.958S984.106,1124.193,959.316,1124.193z"/>
			<circle style="fill:#FFFFFF;" cx="959.316" cy="1079.235" r="35.584"/>
			<path style="fill:#BBDBF3;" d="M1164.907,1497.929h-39.681c-26.642,0-48.24-21.598-48.24-48.24v-134.605h52.739
				c19.431,0,35.182,15.752,35.182,35.182V1497.929z"/>
			<path style="fill:#93ACBF;" d="M841.655,1315.093v134.602c0,26.636-21.615,48.229-48.25,48.229h-39.674v-147.661
				c0-19.417,15.753-35.17,35.17-35.17H841.655z"/>
			<path style="fill:#BBDBF3;" d="M818.834,1315.093v134.602c0,26.636-21.593,48.229-48.251,48.229h-16.852v-147.661
				c0-19.417,15.753-35.17,35.17-35.17H818.834z"/>
			<path style="fill:none;stroke:#FFFFFF;stroke-width:3.083;stroke-miterlimit:10;" d="M1127.171,1099.95h-8.559
				c-7.413,0-13.422-6.009-13.422-13.422v-89.866c0-7.413,6.009-13.422,13.422-13.422h9.337"/>
			<path style="fill:#F74242;" d="M960.277,554.917c0,0-0.343,0.341-0.96,0.976v177.589h115.403
				C1024.733,618.809,960.277,554.917,960.277,554.917z"/>
			<path style="fill:#E62C2C;" d="M959.316,555.893c-8.109,8.338-67.049,71.034-113.493,177.589l113.493,0V555.893z"/>
			<path style="fill:#FFFFFF;" d="M959.316,1476.122c0.32,0.007,0.654,0.021,0.96,0.021c19.21,0,66.1-14.431,80.919-34.235
				c29.919-39.984,51.932-93.835,66.819-161.059H959.316L959.316,1476.122z"/>
			<path style="fill:#BBDBF3;" d="M879.358,1441.908c14.582,19.488,60.201,33.762,79.958,34.214l0-195.272H812.539
				C827.426,1348.073,849.439,1401.924,879.358,1441.908z"/>
			<path style="fill:#E62C2C;" d="M812.539,1280.849h146.777v-73.527H799.767C803.214,1233.377,807.457,1257.901,812.539,1280.849z"
				/>
			<path style="fill:#F74242;" d="M959.316,1207.323v73.527h148.698c5.082-22.949,9.325-47.473,12.772-73.527H959.316z"/>
			<path style="fill:none;stroke:#FFFFFF;stroke-width:3.083;stroke-miterlimit:10;" d="M913.058,760.909
				c0,3.464-2.809,6.273-6.273,6.273c-3.465,0-6.273-2.809-6.273-6.273c0-3.465,2.808-6.273,6.273-6.273
				C910.25,754.636,913.058,757.445,913.058,760.909z"/>
			<path style="fill:none;stroke:#FFFFFF;stroke-width:3.083;stroke-miterlimit:10;" d="M965.59,760.909
				c0,3.464-2.809,6.273-6.273,6.273c-3.465,0-6.273-2.809-6.273-6.273c0-3.465,2.809-6.273,6.273-6.273
				C962.781,754.636,965.59,757.445,965.59,760.909z"/>
			<g>
				<path style="fill:#FFFFFF;" d="M1333.058,1759.411c-64.673-53.784-148.478,6.106-148.478,6.106s-36.759-132.776-124.504-91.264
					c-69.787,32.968-63.831-111.749-58.507-172.422v-0.03c1.384-15.642,2.707-25.659,2.707-25.659l-98.303,9.596
					c0,0,1.203,5.956,2.767,16.063v0.03c8.242,53.153,23.011,258.392-61.635,263.356c-100.77,5.926-70.599-88.136-145.44-88.798
					c-51.347-0.451-88.437,42.594-117.254,88.798c-24.365,39.075-55.138,130.73-55.138,130.73h874.141
					C1403.417,1895.916,1367.741,1788.258,1333.058,1759.411z M664.638,1723.344c-44.038,33.359-95.115,123.661-96.709,126.489
					c1.113-3.128,37.029-102.665,86.091-135.603c49.844-33.48,84.226-8.212,93.671,9.114
					C747.691,1723.344,712.075,1687.368,664.638,1723.344z M990.14,1634.065c-2.707-12.243-4.572-24.696-5.806-37.21
					c-1.203-12.513-1.474-25.117-0.872-37.691c0.632-12.574,2.527-25.087,5.746-37.18c-0.752,12.514-1.293,24.877-1.053,37.27
					c0,3.098,0.241,6.197,0.301,9.265c0.09,3.098,0.18,6.197,0.451,9.295l0.571,9.235l0.842,9.265
					c2.286,24.666,6.076,49.151,10.438,73.818C996.186,1658.43,992.847,1646.308,990.14,1634.065z"/>
			</g>
			<path style="fill:none;stroke:#BBDAF2;stroke-width:3.083;stroke-miterlimit:10;" d="M1018.121,760.909
				c0,3.464-2.809,6.273-6.273,6.273c-3.465,0-6.273-2.809-6.273-6.273c0-3.465,2.809-6.273,6.273-6.273
				C1015.313,754.636,1018.121,757.445,1018.121,760.909z"/>
			<path style="fill:#BBDBF3;" d="M1019.02,1501.819l-117.487,0c-15.685,0-28.399-12.715-28.399-28.399v-37.506l174.286,0v37.506
				C1047.42,1489.104,1034.705,1501.819,1019.02,1501.819z"/>
			
				<ellipse transform="matrix(0.1606 -0.987 0.987 0.1606 -1003.1485 2254.938)" style="fill:#FFFFFF;" cx="824.207" cy="1717.266" rx="8.821" ry="8.821"/>
			<path style="fill:#FFFFFF;" d="M858.248,1726.772c0,1.89-1.532,3.422-3.422,3.422s-3.422-1.532-3.422-3.422
				s1.532-3.422,3.422-3.422S858.248,1724.882,858.248,1726.772z"/>
			<path style="fill:#FFFFFF;" d="M865.306,1692.976c0,3.839-3.112,6.951-6.951,6.951s-6.951-3.112-6.951-6.951
				s3.112-6.951,6.951-6.951S865.306,1689.137,865.306,1692.976z"/>
			<path style="fill:#FFFFFF;" d="M881.67,1726.011c0,2.31-1.873,4.182-4.183,4.182s-4.182-1.873-4.182-4.182
				s1.872-4.182,4.182-4.182S881.67,1723.701,881.67,1726.011z"/>
			<circle style="fill:#FFFFFF;" cx="835.434" cy="1758.179" r="7.148"/>
			<circle style="fill:#FFFFFF;" cx="820.923" cy="1745.189" r="3.284"/>
			<path style="fill:#FFFFFF;" d="M791.479,1728.673c0,2.94-2.383,5.323-5.323,5.323c-2.94,0-5.323-2.383-5.323-5.323
				c0-2.94,2.383-5.323,5.323-5.323C789.096,1723.35,791.479,1725.733,791.479,1728.673z"/>
			<path style="fill:#FFFFFF;" d="M810.034,1744.491c0,2.604-2.111,4.715-4.715,4.715c-2.604,0-4.715-2.111-4.715-4.715
				c0-2.604,2.111-4.715,4.715-4.715C807.923,1739.776,810.034,1741.887,810.034,1744.491z"/>
			<path style="fill:#FFFFFF;" d="M805.426,1699.95c0,3.851-3.122,6.974-6.974,6.974c-3.851,0-6.974-3.122-6.974-6.974
				s3.122-6.974,6.974-6.974C802.304,1692.976,805.426,1696.099,805.426,1699.95z"/>
			<circle style="fill:#FFFFFF;" cx="763.319" cy="1697.669" r="4.692"/>
			<path style="fill:#FFFFFF;" d="M770.468,1718.494c0,0.678-0.55,1.228-1.228,1.228c-0.678,0-1.228-0.55-1.228-1.228
				c0-0.678,0.55-1.228,1.228-1.228C769.918,1717.266,770.468,1717.816,770.468,1718.494z"/>
			<circle style="fill:#FFFFFF;" cx="830.719" cy="1685.022" r="4.259"/>
			<path style="fill:#FFFFFF;" d="M887.754,1705.403c0,1.68-1.362,3.042-3.042,3.042c-1.68,0-3.042-1.362-3.042-3.042
				c0-1.68,1.362-3.042,3.042-3.042C886.392,1702.361,887.754,1703.723,887.754,1705.403z"/>
			<circle style="fill:#FFFFFF;" cx="887.412" cy="1681.638" r="5.741"/>
			<circle style="fill:#FFFFFF;" cx="773.059" cy="1650.199" r="2.591"/>
			<path style="fill:#FFFFFF;" d="M749.197,1670.117c0,1.848-1.498,3.346-3.346,3.346c-1.848,0-3.346-1.498-3.346-3.346
				s1.498-3.346,3.346-3.346C747.699,1666.771,749.197,1668.269,749.197,1670.117z"/>
			<path style="fill:#FFFFFF;" d="M1038.883,1651.207c0,1.988-1.612,3.599-3.6,3.599c-1.988,0-3.599-1.612-3.599-3.599
				c0-1.988,1.612-3.6,3.599-3.6C1037.272,1647.608,1038.883,1649.219,1038.883,1651.207z"/>
			<path style="fill:#FFFFFF;" d="M1046.386,1669.661c0,1.596-1.294,2.89-2.89,2.89s-2.89-1.294-2.89-2.89s1.294-2.89,2.89-2.89
				S1046.386,1668.065,1046.386,1669.661z"/>
			<path style="fill:#FFFFFF;" d="M1074.27,1649.534c0,4.256-3.45,7.706-7.706,7.706c-4.256,0-7.706-3.45-7.706-7.706
				c0-4.256,3.45-7.706,7.706-7.706C1070.82,1641.828,1074.27,1645.278,1074.27,1649.534z"/>
			<circle style="fill:#FFFFFF;" cx="1060.303" cy="1667.202" r="2.459"/>
			<path style="fill:#FFFFFF;" d="M1030.772,1623.425c0,0.812-0.658,1.47-1.47,1.47s-1.47-0.658-1.47-1.47s0.658-1.47,1.47-1.47
				S1030.772,1622.613,1030.772,1623.425z"/>
			<path style="fill:#FFFFFF;" d="M1021.95,1639.901c0,1.288-1.044,2.332-2.332,2.332c-1.288,0-2.332-1.044-2.332-2.332
				c0-1.288,1.044-2.332,2.332-2.332C1020.906,1637.569,1021.95,1638.614,1021.95,1639.901z"/>
			<path style="fill:#FFFFFF;" d="M1025.195,1660.028c0,1.54-1.248,2.788-2.788,2.788c-1.54,0-2.788-1.248-2.788-2.788
				c0-1.54,1.248-2.788,2.788-2.788C1023.946,1657.24,1025.195,1658.489,1025.195,1660.028z"/>
			<path style="fill:#FFFFFF;" d="M1059.72,1627.151c0,1.246-1.01,2.256-2.256,2.256s-2.256-1.01-2.256-2.256
				s1.01-2.256,2.256-2.256S1059.72,1625.905,1059.72,1627.151z"/>
			<path style="fill:#FFFFFF;" d="M1050.899,1638.609c0,1.246-1.01,2.256-2.256,2.256c-1.246,0-2.256-1.01-2.256-2.256
				s1.01-2.256,2.256-2.256C1049.888,1636.353,1050.899,1637.363,1050.899,1638.609z"/>
			<path style="fill:#FFFFFF;" d="M1019.618,1616.631c0,1.764-1.43,3.194-3.194,3.194c-1.764,0-3.194-1.43-3.194-3.194
				s1.43-3.194,3.194-3.194C1018.188,1613.437,1019.618,1614.867,1019.618,1616.631z"/>
			<path style="fill:#FFFFFF;" d="M889.959,1566.479c0,2.289-1.856,4.145-4.145,4.145c-2.289,0-4.144-1.856-4.144-4.145
				s1.855-4.145,4.144-4.145C888.103,1562.334,889.959,1564.19,889.959,1566.479z"/>
			<path style="fill:#FFFFFF;" d="M908.388,1607.557c0,3.248-2.633,5.881-5.881,5.881c-3.248,0-5.881-2.633-5.881-5.881
				c0-3.248,2.633-5.881,5.881-5.881C905.755,1601.676,908.388,1604.308,908.388,1607.557z"/>
			<path style="fill:#FFFFFF;" d="M887.754,1643.907c0,1.68-1.362,3.042-3.042,3.042c-1.68,0-3.042-1.362-3.042-3.042
				c0-1.68,1.362-3.042,3.042-3.042C886.392,1640.865,887.754,1642.227,887.754,1643.907z"/>
			<path style="fill:#FFFFFF;" d="M1133.367,1653.818c0,3.43-2.78,6.21-6.21,6.21c-3.43,0-6.21-2.78-6.21-6.21
				c0-3.43,2.781-6.21,6.21-6.21C1130.587,1647.608,1133.367,1650.388,1133.367,1653.818z"/>
			<path style="fill:#FFFFFF;" d="M1158.196,1685.819c0,2.792-2.263,5.055-5.055,5.055c-2.792,0-5.055-2.263-5.055-5.055
				s2.263-5.055,5.055-5.055C1155.933,1680.764,1158.196,1683.027,1158.196,1685.819z"/>
			<path style="fill:#FFFFFF;" d="M1109.666,1632.884c0,3.166-2.567,5.733-5.733,5.733s-5.733-2.567-5.733-5.733
				c0-3.166,2.567-5.733,5.733-5.733S1109.666,1629.718,1109.666,1632.884z"/>
			<circle style="fill:#FFFFFF;" cx="851.15" cy="1615.415" r="4.411"/>
			<path style="fill:#FFFFFF;" d="M852.212,1650.496c0,1.959-1.588,3.547-3.548,3.547c-1.959,0-3.548-1.588-3.548-3.547
				c0-1.959,1.588-3.548,3.548-3.548C850.624,1646.948,852.212,1648.537,852.212,1650.496z"/>
			<circle style="fill:#FFFFFF;" cx="848.639" cy="1563.64" r="6.984"/>
		</g>
	</g>
	<g>
		<path style="fill:#BBDBF3;" d="M1607.943,1208.942v-4.496l25.954-14.047v6.867l-17.337,9.427l17.337,9.427v6.867
			L1607.943,1208.942z"/>
		<path style="fill:#BBDBF3;" d="M2113.659,1582.097v-6.867l17.337-9.427l-17.337-9.427v-6.867l25.955,14.047v4.496
			L2113.659,1582.097z"/>
		<rect x="1643.524" y="1201.392" style="fill:#BBDBF3;" width="103.218" height="10.604"/>
		<rect x="1607.943" y="1242.371" style="fill:#BBDBF3;" width="103.218" height="10.604"/>
		<rect x="1629.93" y="1270.918" style="fill:#BBDBF3;" width="103.218" height="10.604"/>
		<rect x="1629.93" y="1349.488" style="fill:#BBDBF3;" width="103.218" height="10.604"/>
		<rect x="1629.93" y="1373.792" style="fill:#BBDBF3;" width="103.218" height="10.604"/>
		<rect x="1665.398" y="1298.106" style="fill:#BBDBF3;" width="311.284" height="10.604"/>
		<rect x="1665.398" y="1399.615" style="fill:#BBDBF3;" width="415.849" height="10.604"/>
		<rect x="1665.398" y="1480.914" style="fill:#BBDBF3;" width="415.849" height="10.604"/>
		<rect x="1704.509" y="1560.5" style="fill:#BBDBF3;" width="398.403" height="10.604"/>
		<rect x="1665.398" y="1508.538" style="fill:#BBDBF3;" width="89.069" height="10.604"/>
		<rect x="1665.398" y="1534.814" style="fill:#BBDBF3;" width="89.069" height="10.604"/>
		<rect x="1665.398" y="1425.567" style="fill:#BBDBF3;" width="415.849" height="10.604"/>
		<rect x="1665.398" y="1451.519" style="fill:#BBDBF3;" width="224.993" height="10.604"/>
		<rect x="1665.398" y="1322.545" style="fill:#BBDBF3;" width="95.45" height="10.604"/>
	</g>
	<g>
		<path style="fill:#F74242;" d="M1555.708,1996.565h-426.944c-9.767,0-17.725-7.92-17.725-17.687v-152.434
			c0-9.768,7.957-17.687,17.725-17.687h426.944c-9.767,0-17.687,7.919-17.687,17.687v152.434
			C1538.021,1988.645,1545.941,1996.565,1555.708,1996.565z"/>
		<path style="fill:#DE2828;" d="M1559.404,1830.139v145.043h424.191v21.383h-427.887c-9.767,0-17.687-7.92-17.687-17.687v-152.434
			c0-9.768,7.92-17.687,17.687-17.687h427.887v21.383H1559.404z"/>
		<rect x="1559.404" y="1830.139" style="fill:#E5F0F8;" width="15.085" height="145.043"/>
		<path style="fill:#FFFFFF;" d="M1974.28,1975.182h-399.791v-145.043h399.791C1974.28,1830.139,1959.384,1885.916,1974.28,1975.182
			z"/>
		<rect x="1181.985" y="1808.756" style="fill:#F9ECB8;" width="32.035" height="187.798"/>
		<rect x="1408.515" y="1808.756" style="fill:#F9ECB8;" width="32.035" height="187.798"/>
		
			<line style="fill:none;stroke:#E5F0F8;stroke-width:3.7713;stroke-miterlimit:10;" x1="1622.842" y1="1861.594" x2="1909.627" y2="1861.594"/>
		
			<line style="fill:none;stroke:#E5F0F8;stroke-width:3.7713;stroke-miterlimit:10;" x1="1657.164" y1="1955.41" x2="1943.949" y2="1955.41"/>
		
			<line style="fill:none;stroke:#E5F0F8;stroke-width:3.7713;stroke-miterlimit:10;" x1="1603.773" y1="1917.274" x2="1860.05" y2="1917.274"/>
		
			<line style="fill:none;stroke:#E5F0F8;stroke-width:3.7713;stroke-miterlimit:10;" x1="1632.67" y1="1894.392" x2="1888.946" y2="1894.392"/>
	</g>
	<g>
		<path style="fill:#2EC6FC;" d="M1546.412,1808.739h-426.944c-9.767,0-17.725-7.92-17.725-17.687v-152.434
			c0-9.768,7.957-17.687,17.725-17.687h426.944c-9.767,0-17.687,7.919-17.687,17.687v152.434
			C1528.724,1800.819,1536.644,1808.739,1546.412,1808.739z"/>
		<path style="fill:#088CFC;" d="M1550.108,1642.313v145.043h424.191v21.383h-427.887c-9.767,0-17.687-7.92-17.687-17.687v-152.434
			c0-9.768,7.92-17.687,17.687-17.687h427.887v21.383H1550.108z"/>
		<rect x="1550.108" y="1642.313" style="fill:#E5F0F8;" width="15.085" height="145.043"/>
		<path style="fill:#FFFFFF;" d="M1964.984,1787.356h-399.791v-145.043h399.791
			C1964.984,1642.313,1950.087,1698.09,1964.984,1787.356z"/>
		<polygon style="fill:none;stroke:#FFFFFF;stroke-width:2.6488;stroke-miterlimit:10;" points="1324.077,1766.023 
			1413.067,1714.835 1324.077,1663.647 1235.088,1714.835 		"/>
		<polygon style="fill:#FFFFFF;" points="1324.077,1753.554 1391.389,1714.835 1324.077,1676.116 1256.765,1714.835 		"/>
		<polygon style="fill:#FFFFFF;" points="1218.046,1737.106 1256.765,1714.835 1218.046,1692.563 1179.327,1714.835 		"/>
		<polygon style="fill:#FFFFFF;" points="1430.108,1737.106 1391.389,1714.835 1430.108,1692.563 1468.827,1714.835 		"/>
		
			<line style="fill:none;stroke:#E5F0F8;stroke-width:3.7713;stroke-miterlimit:10;" x1="1933.594" y1="1668.937" x2="1617.825" y2="1668.937"/>
		
			<line style="fill:none;stroke:#E5F0F8;stroke-width:3.7713;stroke-miterlimit:10;" x1="1880.961" y1="1768.542" x2="1565.193" y2="1768.542"/>
		
			<line style="fill:none;stroke:#E5F0F8;stroke-width:3.7713;stroke-miterlimit:10;" x1="1914.673" y1="1695.834" x2="1598.904" y2="1695.834"/>
		
			<line style="fill:none;stroke:#E5F0F8;stroke-width:3.7713;stroke-miterlimit:10;" x1="1937.046" y1="1734.982" x2="1621.278" y2="1734.982"/>
	</g>
	<g>
		
			<rect x="468.302" y="1479.643" transform="matrix(-1 -1.224647e-16 1.224647e-16 -1 1188.7662 2972.6526)" style="fill:#586773;" width="252.163" height="13.366"/>
		
			<rect x="443.029" y="1655.056" transform="matrix(-1 -1.224647e-16 1.224647e-16 -1 1138.2208 3323.479)" style="fill:#586773;" width="252.163" height="13.366"/>
		
			<rect x="423.589" y="1830.47" transform="matrix(-1 -1.224647e-16 1.224647e-16 -1 1091.6296 3674.3057)" style="fill:#586773;" width="244.453" height="13.366"/>
		<polygon style="fill:#586773;" points="641.659,2002.745 655.915,2002.745 739.222,1356.705 724.965,1356.705 		"/>
		<polygon style="fill:#586773;" points="398.207,2002.745 412.463,2002.745 495.769,1356.705 481.513,1356.705 		"/>
		<polygon style="fill:#586773;" points="579.148,2002.745 564.891,2002.745 481.585,1356.705 495.841,1356.705 		"/>
		<polygon style="fill:#586773;" points="822.6,2002.745 808.344,2002.745 725.037,1356.705 739.293,1356.705 		"/>
		
			<rect x="483.811" y="1356.705" transform="matrix(-1 -1.224647e-16 1.224647e-16 -1 1219.785 2726.7761)" style="fill:#586773;" width="252.163" height="13.366"/>
	</g>
	<path style="fill:#0775EF;" d="M2062.322,2034.417H330.989c-9.6,0-17.383-7.783-17.383-17.383v-3.009
		c0-9.6,7.783-17.383,17.383-17.383h1731.332c9.601,0,17.383,7.783,17.383,17.383v3.009
		C2079.705,2026.634,2071.922,2034.417,2062.322,2034.417z"/>
	<g>
		<path style="fill:#088CFC;" d="M505.131,1245.691l-21.45,177.557c-0.674,4.488-0.652,9.154,0.263,13.864
			c4.309,22.17,25.775,36.649,47.946,32.34c22.17-4.309,30.655-21.428,34.637-46.885c7.644-48.867,34.341-195.486,34.341-195.486
			L505.131,1245.691z"/>
		<polygon style="fill:#088CFC;" points="644.21,1236.754 565.419,1242.04 565.811,1329.332 575.163,1343.162 583.832,1427.315 
			663.587,1420.939 		"/>
		<path style="fill:#088CFC;" d="M468.744,1603.47l74.113-0.051l22.34-172.467c2.332-22.476-13.961-42.602-36.407-44.968
			c-22.476-2.332-42.57,13.959-44.936,36.405c-0.213,1.951-0.238,3.857-0.167,5.788l-12.901,151.378L468.744,1603.47
			L468.744,1603.47z"/>
		<path style="fill:#088CFC;" d="M583.548,1424.213l19.032,179.257h72.81l-11.674-180.239c0.095-1.9-0.443-4.021-0.602-5.984
			c-1.995-22.512-19.884-39.324-42.395-37.361C598.239,1381.881,581.585,1401.701,583.548,1424.213z"/>
		<polygon style="fill:#FDAE97;" points="613.086,1631.485 611.134,1603.47 665.685,1603.47 667.815,1631.485 		"/>
		<polygon style="fill:#EA9D85;" points="666.65,1616.161 611.134,1603.47 665.685,1603.47 		"/>
		<polygon style="fill:#FDAE97;" points="532.114,1631.485 534.206,1603.425 478.331,1603.47 477.384,1631.485 		"/>
		<polygon style="fill:#EA9D85;" points="533.039,1619.075 478.331,1603.47 534.206,1603.425 		"/>
		<path style="fill:#322A28;" d="M694.698,1655.049h-80.553l-0.138-3.278l-0.989-21.711h54.814c6.786,0,13.064,3.984,17.865,8.139
			c3.97,3.555,6.924,8.217,8.309,13.572C694.329,1652.833,694.56,1653.941,694.698,1655.049z"/>
		<path style="fill:#FFF1F0;" d="M694.698,1655.049h-80.553l-0.138-3.278h79.999C694.329,1652.833,694.56,1653.941,694.698,1655.049
			z"/>
		<g>
			
				<path style="fill:none;stroke:#FFF1F0;stroke-width:1.0539;stroke-linecap:round;stroke-linejoin:round;stroke-miterlimit:10;" d="
				M669.482,1634.528c0,0-6.963-12.22-11.652-7.389C653.141,1631.97,669.482,1634.528,669.482,1634.528"/>
			
				<path style="fill:none;stroke:#FFF1F0;stroke-width:1.0539;stroke-linecap:round;stroke-linejoin:round;stroke-miterlimit:10;" d="
				M667.03,1636.961l2.451-2.433c0,0,6.963-12.22,11.652-7.389c4.689,4.831-11.652,7.389-11.652,7.389"/>
			
				<line style="fill:none;stroke:#FFF1F0;stroke-width:1.0539;stroke-linecap:round;stroke-linejoin:round;stroke-miterlimit:10;" x1="671.352" y1="1636.961" x2="669.482" y2="1634.528"/>
		</g>
		<path style="fill:#322A28;" d="M450.919,1655.049h80.553l0.138-3.278l0.989-21.711h-54.814c-6.786,0-13.064,3.984-17.865,8.139
			c-3.97,3.555-6.924,8.217-8.309,13.572C451.289,1652.833,451.058,1653.941,450.919,1655.049z"/>
		<path style="fill:#FFF1F0;" d="M450.919,1655.049h80.553l0.138-3.278h-79.999C451.289,1652.833,451.058,1653.941,450.919,1655.049
			z"/>
		<g>
			
				<path style="fill:none;stroke:#FFF1F0;stroke-width:1.0539;stroke-linecap:round;stroke-linejoin:round;stroke-miterlimit:10;" d="
				M476.136,1635.267c0,0,6.963-12.22,11.652-7.389C492.477,1632.71,476.136,1635.267,476.136,1635.267"/>
			
				<path style="fill:none;stroke:#FFF1F0;stroke-width:1.0539;stroke-linecap:round;stroke-linejoin:round;stroke-miterlimit:10;" d="
				M478.587,1637.701l-2.451-2.433c0,0-6.963-12.22-11.652-7.389c-4.689,4.831,11.652,7.389,11.652,7.389"/>
			
				<line style="fill:none;stroke:#FFF1F0;stroke-width:1.0539;stroke-linecap:round;stroke-linejoin:round;stroke-miterlimit:10;" x1="474.266" y1="1637.701" x2="476.136" y2="1635.267"/>
		</g>
		
			<polyline style="fill:none;stroke:#FFFFFF;stroke-width:0.6924;stroke-linecap:round;stroke-linejoin:round;stroke-miterlimit:10;" points="
			576.974,1360.745 583.391,1339.322 589.539,1339.322 599.329,1312.805 		"/>
		
			<line style="fill:none;stroke:#FFFFFF;stroke-width:0.6924;stroke-linecap:round;stroke-linejoin:round;stroke-miterlimit:10;" x1="476.136" y1="1583.222" x2="539.207" y2="1583.222"/>
		
			<line style="fill:none;stroke:#FFFFFF;stroke-width:0.6924;stroke-linecap:round;stroke-linejoin:round;stroke-miterlimit:10;" x1="604.745" y1="1583.222" x2="667.815" y2="1583.222"/>
		<path style="fill:#FDAE97;" d="M744.141,1006.039L744.141,1006.039c7.227,13.954,1.723,31.283-12.231,38.509l-92.762,48.042
			c-13.954,7.227-31.283,1.723-38.509-12.231v0c-7.227-13.953-1.723-31.283,12.231-38.509l92.762-48.042
			C719.585,986.582,736.914,992.086,744.141,1006.039z"/>
		<path style="fill:#F74242;" d="M612.869,1041.85c-13.953,7.227-20.602,24.899-13.375,38.853
			c7.227,13.954,27.569,21.063,41.522,13.837l72.116-34.878l-28.656-60.249L612.869,1041.85z"/>
		<polygon style="fill:#F74242;" points="631.18,1024.949 645.494,1091.505 649.678,1247.481 498.655,1247.481 502.18,1080.238 
			523.708,1025.085 570.614,1023.491 604.892,1027.091 		"/>
		<path style="fill:#FDAE97;" d="M604.892,999.37v27.721c0,0-1.656,5.986-15.75,6.044c-14.064,0.029-28.942-9.299-28.942-9.299
			l4.359-60.615L604.892,999.37z"/>
		<polygon style="fill:#EA9D85;" points="604.904,1023.289 576.113,993.4 604.904,993.023 		"/>
		<path style="fill:#FDAE97;" d="M697.6,1015.349c-2.511,13.565,6.534,26.718,20.099,29.228
			c13.565,2.511,26.717-6.533,29.228-20.098l7.899-118.535l-29.147-4.16L697.6,1015.349z"/>
		<path style="fill:#FDAE97;" d="M616.69,943.607c0,0,0,16.999,0,29.058v9.967c0,7.875-2.208,19.556-11.071,22.259
			c-8.834,2.702-21.009-0.988-29.494-10.199c-8.485-9.24-27.315-50.852-1.134-66.223C601.202,913.096,616.08,939.539,616.69,943.607
			z"/>
		<path style="fill:#322A28;" d="M577.709,927.026c0,0,31.68-14.615,38.986-5.016c7.306,9.599-4.865,12.95-4.865,12.95
			s15.11-1.784,14.522,8.403c-0.588,10.187-38.396-3.722-38.396-3.722s12.537,5.681,5.289,10.187
			c-7.248,4.506-15.536-1.371-15.536-1.371s-7.188,4.11-6.012,22.988c1.176,18.878-10.092,23.047-10.092,23.047
			s1.35-28.601-4.172-36.241C551.912,950.611,560.018,922.247,577.709,927.026z"/>
		<g>
			<path style="fill:#FDAE97;" d="M573.473,975.821c3.074,4.814,3.896,8.203,0.116,10.617c-3.78,2.414-10.065,1.651-13.139-3.163
				c-3.074-4.814-2.502-10.674,1.278-13.088C565.507,967.773,570.399,971.007,573.473,975.821z"/>
			<path style="fill:none;stroke:#724638;stroke-width:0.6963;stroke-miterlimit:10;" d="M563.605,975.452
				c0,0,3.883-0.579,6.542,4.396c0,0-2.453-0.563-5.436,0"/>
		</g>
		<polygon style="fill:#EA9D85;" points="687.669,1003.111 721.34,1050.023 711.076,1055.338 686.518,1003.707 		"/>
		<path style="fill:#2C3447;" d="M593.149,965.721c0,1.827,0.958,3.307,2.14,3.307c1.182,0,2.14-1.481,2.14-3.307
			c0-1.827-0.958-3.307-2.14-3.307C594.107,962.414,593.149,963.894,593.149,965.721z"/>
		<path style="fill:none;stroke:#2C3447;stroke-width:0.8717;stroke-miterlimit:10;" d="M602.236,966.985l4.031,11.664
			c0.408,1.182-0.04,2.49-1.089,3.172l-3.286,2.138"/>
		<path style="fill:none;stroke:#2C3447;stroke-width:0.8717;stroke-miterlimit:10;" d="M589.78,960.231
			c0,0,4.506-3.152,8.801-1.153"/>
		<path style="fill:#2C3447;" d="M615.244,965.721c0,1.827-0.958,3.307-2.14,3.307c-1.182,0-2.14-1.481-2.14-3.307
			c0-1.827,0.958-3.307,2.14-3.307C614.286,962.414,615.244,963.894,615.244,965.721z"/>
		<path style="fill:none;stroke:#2C3447;stroke-width:0.8717;stroke-miterlimit:10;" d="M617.229,960.049
			c0,0-3.122-2.97-7.417-0.972"/>
		<path style="fill:#EA9D85;" d="M596.55,977.782c-0.562,1.678-3.723,2.133-7.059,1.015c-3.337-1.118-5.586-3.384-5.024-5.062
			c0.562-1.678,3.723-2.133,7.059-1.015C594.863,973.838,597.112,976.104,596.55,977.782z"/>
		<path style="fill:#EA9D85;" d="M616.69,972.665v6.48c-2.731,0.319-4.969-0.436-5.347-1.86
			C610.937,975.6,613.32,973.537,616.69,972.665z"/>
		<path style="fill:#FFFFFF;" d="M593.969,989l9.359,2.185c0,0-1.692,3.867-5.595,2.831C593.83,992.979,593.969,989,593.969,989z"/>
		<polygon style="fill:#F74242;" points="625.8,1027.578 684.476,999.413 664.906,1036.982 621.918,1049.332 		"/>
		<path style="fill:#FDAE97;" d="M452.176,1008.558c5.352,12.715-2.198,35.038-14.913,40.389
			c-12.715,5.352-29.034-3.131-34.386-15.846l-31.513-111.649l27.584-10.293L452.176,1008.558z"/>
		<path style="fill:#FDAE97;" d="M402.921,1009.397L402.921,1009.397c5.933-14.551,22.692-21.602,37.243-15.669l96.733,39.441
			c14.551,5.933,21.602,22.692,15.669,37.243l0,0c-5.933,14.551-22.692,21.602-37.243,15.669l-96.733-39.44
			C404.039,1040.708,396.988,1023.948,402.921,1009.397z"/>
		<path style="fill:#F74242;" d="M515.323,1086.081c14.551,5.933,32.314-0.47,38.247-15.021s-1.851-34.645-16.401-40.578
			l-73.323-32.264l-27.268,60.89L515.323,1086.081z"/>
		<polygon style="fill:#EA9D85;" points="437.321,1054.277 451.186,998.222 461.889,1002.586 438.521,1054.767 		"/>
		<path style="fill:#FDAE97;" d="M398.948,911.159l2.72-14.503c0,0-1.495-14.434-1.994-19.245c-0.281-2.713-0.402-9.779-1.124-10.85
			c-0.571-0.848-2.999-1.409-3.573-0.563c-0.746,1.099-1.412,8.347-1.732,11.183c-0.304,2.696-1.217,10.784-1.217,10.784
			s-9.88-18.033-12.816-24.256c-1.653-3.503-6.012-13.935-8.714-12.957c-2.058,0.745,1.122,11.914,2.172,15.747
			c0.965,3.523,3.752,14.121,3.752,14.121s-6.366-13.89-8.489-18.52c-1.544-3.369-4.786-13.985-7.84-12.969
			c-3.023,1.006,0.985,11.227,1.913,14.787c1.309,5.024,5.237,20.098,5.237,20.098s-7.015-14.381-9.354-19.175
			c-1.294-2.653-4.043-11.05-6.833-9.918c-2.842,1.153,1.107,9.25,2.04,12.098c1.599,4.878,6.397,19.513,6.397,19.513
			s-5.375-10.256-7.166-13.675c-0.766-1.461-3.192-5.748-4.715-4.966c-2.073,1.065,0.739,7.089,1.443,9.209l5.817,17.523
			c0.471,1.418,1.117,2.771,1.924,4.027l14.661,22.832L398.948,911.159z"/>
		<path style="fill:#FDAE97;" d="M725.679,901.784l-5.757-13.587c0,0-1.624-14.42-2.166-19.227c-0.305-2.71-1.697-9.639-1.221-10.84
			c0.377-0.95,2.629-2.017,3.371-1.313c0.964,0.914,3.163,7.852,4.082,10.554c0.873,2.569,3.493,10.275,3.493,10.275
			s5.798-19.728,7.336-26.435c0.866-3.775,2.895-14.898,5.743-14.52c2.17,0.288,1.45,11.879,1.244,15.848
			c-0.189,3.648-0.647,14.597-0.647,14.597s3.251-14.93,4.334-19.906c0.789-3.621,1.687-14.685,4.887-14.345
			c3.169,0.337,1.437,11.178,1.292,14.854c-0.205,5.188-0.82,20.753-0.82,20.753s3.779-15.548,5.039-20.731
			c0.697-2.868,1.588-11.658,4.556-11.149c3.023,0.518,0.896,9.273,0.593,12.254c-0.52,5.107-2.079,20.43-2.079,20.43
			s3.059-11.168,4.078-14.891c0.436-1.591,1.89-6.298,3.545-5.859c2.253,0.597,0.793,7.083,0.559,9.305l-1.938,18.362
			c-0.157,1.485-0.499,2.945-1.019,4.346l-9.443,25.437L725.679,901.784z"/>
		<g>
			<path style="fill:#F2BB16;" d="M728.743,874.018l-363.979,6.636c-10.306,0.188-18.813-8.014-19-18.32l-3.552-194.838
				c-0.188-10.306,8.014-18.813,18.32-19.001l363.979-6.636c10.306-0.188,18.813,8.014,19,18.32l3.552,194.838
				C747.251,865.323,739.049,873.83,728.743,874.018z"/>
			<path style="fill:#F9E181;" d="M749.498,873.64l-363.979,6.636c-10.306,0.188-18.813-8.014-19.001-18.32l-3.552-194.838
				c-0.188-10.306,8.014-18.813,18.32-19.001l363.979-6.636c10.306-0.188,18.813,8.014,19,18.32l3.552,194.838
				C768.006,864.945,759.804,873.452,749.498,873.64z"/>
			<g>
				<path style="fill:#FFFFFF;" d="M393.783,718.227l12.414-0.226l0.693,38.011l47.443-0.865l-0.693-38.011l12.409-0.226
					l1.669,91.529l-12.409,0.226l-0.764-41.888l-47.443,0.865l0.764,41.888l-12.414,0.226L393.783,718.227z"/>
				<path style="fill:#FFFFFF;" d="M508.927,727.767l-29.479,0.537l-0.212-11.636l71.361-1.301l0.212,11.636l-29.473,0.537
					l1.456,79.893l-12.409,0.226L508.927,727.767z"/>
				<path style="fill:#FFFFFF;" d="M562.875,715.144l18.49-0.337l30.348,68.764l0.521-0.01l27.563-69.819l18.485-0.337l1.669,91.529
					l-12.409,0.226l-1.372-75.238l-0.258,0.005l-29.527,75.802l-8.274,0.151l-32.266-74.675l-0.258,0.005l1.372,75.238
					l-12.414,0.226L562.875,715.144z"/>
				<path style="fill:#FFFFFF;" d="M680.906,712.992l12.414-0.226l1.457,79.893l42.014-0.766l0.212,11.636l-54.428,0.992
					L680.906,712.992z"/>
			</g>
		</g>
		<path style="fill:#FDAE97;" d="M726.368,874.373c0,0-3.179-19.929-6.677-20.081c-3.498-0.152-1.326,20.081-1.326,20.081H726.368z"
			/>
		<path style="fill:#FDAE97;" d="M392.841,880.764c0,0,0.991-14.229,4.185-14.533c3.194-0.304,3.176,16.276,3.176,16.276
			L392.841,880.764z"/>
	</g>
	<g>
		<path style="fill:#FDAE97;" d="M1256.291,1027.032c-1.149,2.039,8.108,12.79,16.977,18.134
			c7.511,4.537,25.953,13.133,31.407,15.628l15.057-23.509c-2.7-2.262-5.595-4.853-7.802-7.385
			c-5.479-6.189-22.291-21.315-24.465-18.856c-2.173,2.419,7.276,15.122,5.524,15.401c-1.752,0.279-10.844-7.424-14.444-11.007
			c-3.64-3.585-10.143-12.519-13.077-12.067c-2.974,0.45-3.412,4.821-3.412,4.821s-2.095-3.706-4.169-1.975
			c-2.074,1.732-0.257,8.312-0.257,8.312s-0.917-2.175-2.726,0.294c-1.81,2.509,4.249,11.35,4.249,11.35
			S1257.4,1024.951,1256.291,1027.032z"/>
		<path style="fill:#322A28;" d="M1492.664,887.6c19.538,1.699,36.502,18.302,36.741,42.017c0.239,23.716,4.54,35.917,18.876,33.162
			c0,0-40.156,23.288-93.072,2.74c0,0,6.633-7.865,7.561-25.675C1463.698,922.032,1492.664,887.6,1492.664,887.6z"/>
		<path style="fill:#F74242;" d="M1389.911,1129.894L1389.911,1129.894c12.449,6.7,28.117,1.997,34.817-10.453l50.363-93.576
			c6.7-12.449,1.996-28.117-10.453-34.817l0,0c-12.449-6.7-28.117-1.996-34.817,10.453l-50.363,93.576
			C1372.758,1107.526,1377.462,1123.194,1389.911,1129.894z"/>
		<path style="fill:#0775EF;" d="M1504.374,1161.029c16.829,22.035,23.17,67.718,12.439,116.93
			c-10.731,49.212-14.356,81.563-14.356,81.563c-2.797,22.78-23.531,38.98-46.312,36.183c-22.78-2.797-38.98-23.532-36.183-46.312
			l17.111-188.364H1504.374z"/>
		<path style="fill:#F74242;" d="M1508.084,980.387l44.984,20.374c0,0-10.002,115.803-11.036,128.47
			c-1.034,12.667,2.844,31.798,2.844,31.798h-107.803c0,0,1.293-62.045-5.946-79.366c-4.904-11.734-8.273-18.872-5.429-32.315
			c2.844-13.443,23.651-37.208,20.291-60.475l23.468-7.516L1508.084,980.387z"/>
		<path style="fill:#F74242;" d="M1553.796,1157.442L1553.796,1157.442c14.121-0.679,25.12-12.789,24.44-26.91l-5.105-106.145
			c-0.679-14.121-12.789-25.12-26.91-24.44h0c-14.121,0.679-25.119,12.788-24.44,26.91l5.105,106.146
			C1527.565,1147.123,1539.675,1158.121,1553.796,1157.442z"/>
		<path style="fill:#332B27;" d="M1464.032,913.279c0,0-6.12-15.058,8.592-19.617L1464.032,913.279z"/>
		<path style="fill:#FDAE97;" d="M1469.462,929.018v52.329c0,0,1.055,11.48,14.684,12.494c11.764,0.893,19.268-6.855,22.432-10.993
			l1.663-2.434l0.041-0.04l-5.558-51.355H1469.462z"/>
		<polygon style="fill:#E89780;" points="1469.471,975.389 1492.664,950.168 1469.456,958.886 		"/>
		<path style="fill:#FDAE97;" d="M1492.475,955.756c-10.843,6.393-23.634,6.384-31.35,1.194c-7.723-5.161-6.454-17.052-4.155-24.602
			c0.008-0.029,0.008-0.029,0.016-0.058c0.48-1.561,1.16-3.756,1.919-6.244c2.95-9.753,7.311-24.197,7.311-24.197
			c1.908-7.633,23.771-24.804,44.469-2.412C1531.376,921.857,1503.318,949.363,1492.475,955.756z"/>
		<path style="fill:#322A28;" d="M1466.908,898.762c0,0,0.284,9.147,13.096,15.258c12.813,6.112,24.975,15.457,23.442,28.966
			c-1.533,13.508,3.098,21.129,3.098,21.129s1.907-16.834,10.398-31.09c3.294-5.53,6.179-17.196,0.71-27.254
			C1509.022,889.901,1486.741,877.843,1466.908,898.762z"/>
		<path style="fill:#FDAE97;" d="M1501.255,940.083c-2.756,4.072-3.54,6.969-0.343,9.133c3.197,2.164,8.623,1.651,11.378-2.421
			c2.756-4.072,2.398-9.127-0.8-11.291C1508.294,933.34,1504.01,936.011,1501.255,940.083z"/>
		
			<path style="fill:none;stroke:#E89780;stroke-width:0.6107;stroke-linecap:round;stroke-linejoin:round;stroke-miterlimit:10;" d="
			M1508.468,943.12c-2.683-1.307-5.021-0.134-5.021-0.134c1.853-4.646,7.432-2.767,7.432-2.767"/>
		<path style="fill:#2C3447;" d="M1481.124,928.023c-0.509,1.83-1.881,3.047-3.065,2.718c-1.184-0.329-1.732-2.08-1.223-3.91
			c0.509-1.83,1.881-3.047,3.065-2.718C1481.085,924.443,1481.632,926.193,1481.124,928.023z"/>
		<path style="fill:#2C3447;" d="M1466.241,922.31c-0.47,1.69-1.737,2.814-2.831,2.51c-1.094-0.304-1.599-1.921-1.13-3.611
			c0.47-1.69,1.737-2.815,2.831-2.511S1466.711,920.62,1466.241,922.31z"/>
		<path style="fill:#0775EF;" d="M1405.049,1573.85h73.018l25.067-214.624l0.321-4.913c0-23.334-19.225-42.142-42.72-41.436
			c-21.183,0.61-38.932,17.845-40.184,39.029L1405.049,1573.85z"/>
		<path style="fill:none;stroke:#2C3447;stroke-width:0.9066;stroke-miterlimit:10;" d="M1487.39,925.128
			c0,0-2.407-5.582-7.148-5.123"/>
		<path style="fill:none;stroke:#2C3447;stroke-width:0.9066;stroke-miterlimit:10;" d="M1468.3,915.805
			c0,0-2.531-1.239-6.176,0.861"/>
		<path style="fill:#088CFF;" d="M1538.392,1573.85h69.68l-22.114-221.687l-0.064-0.77c-1.477-21.536-19.45-38.547-41.372-38.547
			c-22.917,0-41.468,18.552-41.468,41.468c0,1.284,0.064,2.536,0.193,3.755L1538.392,1573.85z"/>
		<path style="fill:#F74242;" d="M1297.611,1071.851l85.273,53.955l5.044,4.189c10.284,7.125,25.354,3.419,33.448-8.26
			c8.095-11.679,6.263-27.065-4.021-34.19l-95.509-53.532l-2.114,3.272l-15.057,23.509L1297.611,1071.851z"/>
		<path style="fill:none;stroke:#2C3447;stroke-width:0.9066;stroke-miterlimit:10;" d="M1472.412,923.679
			c0,0-2.73,9.01-8.361,8.641c0,0,1.265,2.011,3.21,3.235"/>
		<path style="fill:#088CFF;" d="M1470.882,1161.048l0.974,6.044l31.275,191.1c2.393,22.838,22.837,39.388,45.676,36.995
			c22.797-2.393,39.388-22.838,36.995-45.676c0,0-3.772-32.33-4.38-82.711c-0.487-39.023-9.33-70.501-23.244-90.865
			c-4.057-5.922-8.519-10.912-13.305-14.887H1470.882z"/>
		<path style="fill:none;stroke:#2C3447;stroke-width:0.9066;stroke-miterlimit:10;" d="M1464.261,942.858
			c0,0,5.221,4.137,11.287-1.201"/>
		<path style="fill:#E89780;" d="M1489.975,936.019c0.055,1.979-3.047,3.67-6.927,3.778c-3.88,0.107-7.071-1.41-7.125-3.389
			c-0.055-1.979,3.047-3.67,6.927-3.778C1486.73,932.523,1489.92,934.041,1489.975,936.019z"/>
		<path style="fill:#E89780;" d="M1461.084,931.351c-0.625,1.053-2.206,1.35-4.098,0.938c0.48-1.561,1.16-3.756,1.919-6.244
			C1460.942,927.904,1461.905,930.037,1461.084,931.351z"/>
		<path style="fill:none;stroke:#FFFFFF;stroke-width:0.8024;stroke-miterlimit:10;" d="M1499.413,949.211
			c-0.451,1.687,0.551,3.419,2.238,3.87c1.687,0.451,3.419-0.551,3.87-2.238c0.451-1.687-0.551-3.419-2.238-3.87
			C1501.596,946.523,1499.863,947.524,1499.413,949.211z"/>
		<polygon style="fill:#FDAE97;" points="1622.097,1620.93 1568.308,1620.93 1561.331,1610.302 1561.488,1620.93 1549.643,1620.93 
			1550.703,1590.223 1548.107,1573.835 1591.917,1573.835 1592.079,1590.223 		"/>
		<path style="fill:#F9ECB8;" d="M1467.805,981.135l2.712,55.015l36.062-53.302c-3.164,4.137-10.668,11.885-22.432,10.993
			C1470.517,992.826,1467.805,981.135,1467.805,981.135z"/>
		<polygon style="fill:#FFFFFF;" points="1507.952,977.404 1481.06,993.402 1486.743,1003.354 1511.743,982.044 		"/>
		<polygon style="fill:#FFFFFF;" points="1469.471,979.699 1481.06,993.402 1474.061,1001.85 1466.762,982.22 		"/>
		<g>
			<polygon style="fill:#93ACBF;" points="1261.708,934.305 1279.058,923.669 1104.49,638.913 1084.545,625.849 1087.14,649.55 			
				"/>
			<path style="fill:#6ADB6A;" d="M1464.281,1308.516l56.358-34.55c7.708-4.726,10.126-14.806,5.401-22.514l-180.127-293.824
				l-84.273,51.663l180.127,293.824C1446.493,1310.823,1456.573,1313.241,1464.281,1308.516z"/>
			<path style="fill:#6ADB6A;" d="M1235,965.835l84.273-51.663l-11.797-19.244c-0.944-1.54-2.958-2.023-4.498-1.079l-78.696,48.244
				c-1.54,0.944-2.023,2.958-1.079,4.498L1235,965.835z"/>
			<path style="fill:#40A87B;" d="M1258.59,982.064c-8.317-12.331-23.59-16.229-23.59-16.229l42.136-25.831l42.137-25.832
				c0,0-3.454,15.379,3.761,28.386c7.216,13.006,22.88,15.071,22.88,15.071l-42.137,25.832l-42.136,25.832
				C1261.64,1009.291,1266.907,994.395,1258.59,982.064z"/>
			<path style="fill:#40A87B;" d="M1478.386,1268.283L1478.386,1268.283c3.181-1.95,4.188-6.148,2.238-9.329l-152.964-249.515
				c-1.95-3.181-6.148-4.188-9.329-2.238l0,0c-3.181,1.95-4.188,6.148-2.238,9.329l152.964,249.515
				C1471.007,1269.226,1475.205,1270.233,1478.386,1268.283z"/>
			<path style="fill:#40A87B;" d="M1455.252,1282.465L1455.252,1282.465c3.181-1.95,4.188-6.148,2.238-9.329l-152.964-249.515
				c-1.95-3.181-6.148-4.188-9.329-2.238l0,0c-3.181,1.95-4.188,6.148-2.238,9.329l152.964,249.515
				C1447.874,1283.408,1452.072,1284.415,1455.252,1282.465z"/>
			<path style="fill:#40A87B;" d="M1501.52,1254.101L1501.52,1254.101c-3.181,1.95-7.379,0.943-9.329-2.238l-152.964-249.515
				c-1.95-3.181-0.943-7.379,2.238-9.329l0,0c3.181-1.95,7.379-0.943,9.329,2.238l152.964,249.515
				C1505.708,1247.953,1504.701,1252.151,1501.52,1254.101z"/>
			<polygon style="fill:#586773;" points="1104.49,638.913 1084.545,625.849 1107.742,658.124 			"/>
			<polygon style="fill:#586773;" points="1087.14,649.55 1084.545,625.849 1102.785,661.163 			"/>
		</g>
		<polygon style="fill:#FDAE97;" points="1428.613,1620.93 1441.473,1611.357 1440.378,1620.93 1452.344,1620.93 1458.226,1590.223 
			1461.39,1573.835 1414.984,1573.835 1413.199,1590.223 1375.96,1620.93 		"/>
		<polygon style="fill:#322A28;" points="1592.079,1590.223 1622.097,1620.93 1568.308,1620.93 1561.331,1610.302 1561.488,1620.93 
			1549.643,1620.93 1550.703,1590.223 		"/>
		<polygon style="fill:#322A28;" points="1428.613,1620.93 1441.473,1611.357 1440.378,1620.93 1452.344,1620.93 1458.226,1590.223 
			1413.199,1590.223 1375.96,1620.93 		"/>
		<path style="fill:#FDAE97;" d="M1390.323,1079.706c-2.643,1.417-1.611,5.682-1.611,5.682s-3.223-2.808-4.564-0.489
			c-1.275,2.15,1.985,7.194,2.411,7.849c-0.356-0.334-1.621-1.28-2.371,1.27c-0.85,2.805,6.963,8.665,7.704,9.209
			c-0.331-0.052-2.023-0.308-2.365,1.799c-0.36,2.354,11.916,9.404,22.042,11.514c8.547,1.762,28.713,3.669,34.75,4.231
			l6.796-26.996c-3.41-1.243-7.175-2.822-10.136-4.512c-7.243-4.038-28.132-12.681-29.368-9.639
			c-1.239,3.002,11.89,11.849,10.335,12.68c-1.555,0.831-12.683-3.389-17.274-5.546
			C1402.037,1084.566,1392.925,1078.292,1390.323,1079.706z"/>
		<path style="fill:#F74242;" d="M1455.155,1085.61l-2.041,8.165l-6.796,26.996l-1.804,7.166l103.39,30.445
			c12.066,3.322,25.034-5.166,28.821-18.861c3.744-13.733-3.075-27.623-15.181-30.942l-8.162-1.105l-0.041,0.004L1455.155,1085.61z"
			/>
		<polyline style="fill:none;stroke:#2C3447;stroke-width:0.9066;stroke-miterlimit:10;" points="1474.972,1090.024 
			1525.359,1101.246 1523.882,1070.527 		"/>
		<path style="fill:none;stroke:#FFFFFF;stroke-width:1.1814;stroke-miterlimit:10;" d="M1475.072,926.816
			c-1.597,3.216-0.905,6.809,1.545,8.025c2.45,1.216,5.73-0.404,7.327-3.62c1.597-3.216,0.905-6.809-1.545-8.025
			C1479.949,921.979,1476.669,923.6,1475.072,926.816z"/>
		<path style="fill:none;stroke:#FFFFFF;stroke-width:1.1814;stroke-miterlimit:10;" d="M1460.376,921.187
			c-1.597,3.216-0.905,6.809,1.545,8.025c2.45,1.216,5.73-0.404,7.327-3.62c1.597-3.216,0.905-6.809-1.545-8.025
			C1465.253,916.351,1461.973,917.971,1460.376,921.187z"/>
		
			<line style="fill:none;stroke:#FFFFFF;stroke-width:1.1814;stroke-miterlimit:10;" x1="1475.938" y1="925.438" x2="1469.984" y2="923.39"/>
		
			<line style="fill:none;stroke:#2C3447;stroke-width:0.9066;stroke-miterlimit:10;" x1="1531.924" y1="1153.677" x2="1461.377" y2="1132.903"/>
	</g>
	<g>
		<path style="fill:#0775EF;" d="M1925.604,858.727h-220.791c-6.252,0-11.319-5.068-11.319-11.319V729.219
			c0-6.251,5.068-11.319,11.319-11.319h220.791c6.251,0,11.319,5.068,11.319,11.319v118.189
			C1936.923,853.66,1931.855,858.727,1925.604,858.727z"/>
		<path style="fill:#088CFC;" d="M1938.194,858.727h-220.791c-6.251,0-11.319-5.068-11.319-11.319V729.219
			c0-6.251,5.068-11.319,11.319-11.319h220.791c6.252,0,11.319,5.068,11.319,11.319v118.189
			C1949.513,853.66,1944.445,858.727,1938.194,858.727z"/>
		<g>
			<path style="fill:#FFFFFF;" d="M1724.936,757.556h17.02c3.098,0,5.651,0.423,7.653,1.265c2.008,0.843,3.588,1.913,4.75,3.212
				c1.162,1.299,1.969,2.756,2.425,4.375c0.456,1.618,0.684,3.179,0.684,4.68c0,1.505-0.228,3.065-0.684,4.683
				c-0.456,1.616-1.263,3.076-2.425,4.375c-1.162,1.299-2.742,2.37-4.75,3.212c-2.002,0.843-4.555,1.263-7.653,1.263h-10.457v21.325
				h-6.563V757.556z M1731.499,778.881h8.61c1.274,0,2.542-0.103,3.793-0.309c1.251-0.203,2.369-0.581,3.348-1.126
				c0.979-0.548,1.769-1.332,2.358-2.358c0.595-1.026,0.89-2.358,0.89-3.999c0-1.641-0.295-2.973-0.89-3.996
				c-0.59-1.026-1.379-1.813-2.358-2.358c-0.979-0.548-2.097-0.923-3.348-1.129c-1.252-0.206-2.52-0.306-3.793-0.306h-8.61V778.881z
				"/>
			<path style="fill:#FFFFFF;" d="M1760.066,773.55h7.108l9.595,25.288h0.139l9.2-25.288h6.563l-15.379,39.368
				c-0.545,1.41-1.112,2.7-1.702,3.86c-0.59,1.163-1.296,2.153-2.108,2.973c-0.818,0.82-1.808,1.46-2.965,1.913
				c-1.157,0.456-2.575,0.684-4.25,0.684c-0.912,0-1.83-0.056-2.759-0.17s-1.824-0.353-2.686-0.718l0.745-5.604
				c1.224,0.501,2.447,0.751,3.665,0.751c0.951,0,1.758-0.125,2.414-0.375c0.656-0.253,1.218-0.615,1.696-1.096
				c0.473-0.478,0.873-1.034,1.19-1.674c0.317-0.637,0.634-1.365,0.951-2.186l1.991-5.125L1760.066,773.55z"/>
			<path style="fill:#FFFFFF;" d="M1815.431,778.881h-8.816v14.695c0,0.912,0.022,1.81,0.067,2.698
				c0.044,0.89,0.217,1.688,0.512,2.394c0.295,0.706,0.751,1.277,1.368,1.708c0.612,0.434,1.513,0.651,2.698,0.651
				c0.729,0,1.48-0.07,2.258-0.206c0.773-0.136,1.479-0.387,2.119-0.754v5.607c-0.734,0.409-1.674,0.693-2.837,0.854
				c-1.162,0.159-2.063,0.239-2.703,0.239c-2.37,0-4.199-0.331-5.501-0.99c-1.296-0.662-2.253-1.516-2.87-2.564
				c-0.617-1.049-0.979-2.222-1.096-3.521c-0.111-1.299-0.167-2.606-0.167-3.93v-16.881h-7.108v-5.331h7.108v-9.091h6.152v9.091
				h8.816V778.881z"/>
			<path style="fill:#FFFFFF;" d="M1823.357,754.278h6.152v24.262h0.133c0.773-1.73,2.119-3.132,4.033-4.202
				c1.913-1.071,4.121-1.607,6.63-1.607c1.546,0,3.042,0.239,4.477,0.718c1.435,0.478,2.686,1.221,3.76,2.222
				c1.068,1.001,1.924,2.289,2.564,3.86c0.634,1.574,0.957,3.429,0.957,5.57v20.847h-6.152V786.81c0-1.504-0.206-2.792-0.617-3.863
				c-0.412-1.071-0.957-1.936-1.641-2.598c-0.684-0.659-1.468-1.137-2.358-1.435c-0.89-0.295-1.808-0.445-2.764-0.445
				c-1.279,0-2.464,0.206-3.554,0.617c-1.096,0.409-2.052,1.06-2.876,1.947c-0.818,0.89-1.457,2.016-1.913,3.385
				c-0.456,1.365-0.678,2.984-0.678,4.85v16.678h-6.152V754.278z"/>
			<path style="fill:#FFFFFF;" d="M1859.783,789.747c0-2.367,0.445-4.578,1.335-6.627c0.884-2.052,2.103-3.852,3.654-5.401
				c1.546-1.549,3.371-2.767,5.468-3.657c2.097-0.887,4.35-1.332,6.769-1.332c2.414,0,4.667,0.445,6.763,1.332
				c2.097,0.89,3.916,2.108,5.468,3.657c1.546,1.549,2.77,3.348,3.654,5.401c0.89,2.05,1.335,4.26,1.335,6.627
				c0,2.372-0.445,4.591-1.335,6.666c-0.884,2.072-2.108,3.871-3.654,5.398c-1.552,1.527-3.371,2.734-5.468,3.624
				c-2.097,0.887-4.35,1.332-6.763,1.332c-2.42,0-4.672-0.445-6.769-1.332c-2.097-0.89-3.921-2.097-5.468-3.624
				c-1.552-1.527-2.77-3.326-3.654-5.398C1860.228,794.339,1859.783,792.119,1859.783,789.747z M1866.347,789.747
				c0,1.641,0.25,3.156,0.751,4.547s1.207,2.575,2.119,3.554c0.907,0.979,2.025,1.755,3.348,2.322
				c1.318,0.57,2.803,0.857,4.444,0.857c1.635,0,3.12-0.286,4.438-0.857c1.324-0.567,2.436-1.343,3.348-2.322
				c0.912-0.979,1.619-2.164,2.119-3.554c0.501-1.391,0.751-2.906,0.751-4.547c0-1.638-0.25-3.154-0.751-4.544
				c-0.5-1.388-1.207-2.573-2.119-3.554c-0.912-0.979-2.025-1.752-3.348-2.322c-1.318-0.57-2.803-0.857-4.438-0.857
				c-1.641,0-3.126,0.286-4.444,0.857c-1.324,0.57-2.442,1.343-3.348,2.322c-0.912,0.982-1.619,2.166-2.119,3.554
				C1866.597,786.593,1866.347,788.109,1866.347,789.747z"/>
			<path style="fill:#FFFFFF;" d="M1901.955,773.55h6.152v4.989h0.134c0.773-1.73,2.119-3.132,4.032-4.202
				c1.913-1.071,4.121-1.607,6.63-1.607c1.546,0,3.042,0.239,4.478,0.718c1.435,0.478,2.686,1.221,3.76,2.222
				c1.068,1.001,1.924,2.289,2.564,3.86c0.634,1.574,0.957,3.429,0.957,5.57v20.847h-6.152V786.81c0-1.504-0.206-2.792-0.617-3.863
				c-0.411-1.071-0.957-1.936-1.641-2.598c-0.684-0.659-1.468-1.137-2.358-1.435c-0.89-0.295-1.808-0.445-2.764-0.445
				c-1.279,0-2.464,0.206-3.554,0.617c-1.096,0.409-2.052,1.06-2.876,1.947c-0.818,0.89-1.457,2.016-1.913,3.385
				c-0.456,1.365-0.679,2.984-0.679,4.85v16.678h-6.152V773.55z"/>
		</g>
	</g>
	<g>
		<path style="fill:#0775EF;" d="M406.892,1392.943H259.772c-5.159,0-9.341-4.182-9.341-9.341v-122.115
			c0-5.159,4.182-9.341,9.341-9.341h147.121c5.159,0,9.341,4.182,9.341,9.341v122.115
			C416.233,1388.761,412.051,1392.943,406.892,1392.943z"/>
		<path style="fill:#088CFC;" d="M415.76,1392.943H268.639c-5.159,0-9.341-4.182-9.341-9.341v-122.115
			c0-5.159,4.182-9.341,9.341-9.341H415.76c5.159,0,9.341,4.182,9.341,9.341v122.115
			C425.101,1388.761,420.918,1392.943,415.76,1392.943z"/>
		<g>
			<path style="fill:#FFFFFF;" d="M322.676,1277.027h-5.506c-1.223,0-2.223,0.306-2.997,0.917c-0.777,0.611-1.408,1.428-1.898,2.447
				c-0.487,1.021-0.838,2.162-1.038,3.425c-0.204,1.266-0.306,2.551-0.306,3.855v18.476c0.08,2.857-0.268,5.263-1.041,7.22
				c-0.777,1.959-1.733,3.591-2.876,4.895c-1.143,1.306-2.306,2.285-3.487,2.936c-1.181,0.655-2.14,1.062-2.876,1.224v0.366
				c0.736,0.083,1.694,0.409,2.876,0.979c1.182,0.572,2.344,1.468,3.487,2.691c1.143,1.224,2.099,2.876,2.876,4.957
				c0.774,2.08,1.121,4.67,1.041,7.769v18.355c0,1.223,0.102,2.467,0.306,3.731c0.201,1.264,0.551,2.406,1.038,3.427
				c0.49,1.019,1.121,1.836,1.898,2.447c0.774,0.612,1.774,0.917,2.997,0.917h5.506v8.81H313.5c-1.551,0-3.083-0.368-4.589-1.102
				c-1.513-0.734-2.876-1.855-4.099-3.365c-1.226-1.51-2.226-3.447-3-5.812c-0.774-2.366-1.162-5.182-1.162-8.443v-16.396
				c-0.162-4.486-1.223-7.994-3.181-10.524c-1.955-2.527-4.325-3.793-7.095-3.793v-9.545c2.771,0,5.14-1.263,7.095-3.793
				c1.959-2.527,3.019-6.035,3.181-10.522v-19.334c0-2.608,0.388-4.912,1.162-6.912c0.774-1.998,1.774-3.672,3-5.017
				c1.223-1.345,2.586-2.365,4.099-3.059c1.506-0.693,3.038-1.04,4.589-1.04h9.175V1277.027z"/>
			<path style="fill:#FFFFFF;" d="M363.787,1368.063h5.506c1.223,0,2.223-0.306,3-0.917c0.774-0.611,1.405-1.428,1.895-2.447
				c0.491-1.021,0.834-2.162,1.041-3.427c0.201-1.264,0.306-2.549,0.306-3.854v-18.478c-0.083-2.853,0.264-5.261,1.038-7.218
				c0.774-1.959,1.732-3.589,2.876-4.895c1.143-1.304,2.306-2.283,3.487-2.936c1.181-0.653,2.143-1.059,2.876-1.224v-0.366
				c-0.733-0.081-1.694-0.408-2.876-0.979c-1.182-0.57-2.344-1.468-3.487-2.693c-1.143-1.223-2.102-2.874-2.876-4.955
				c-0.774-2.08-1.121-4.669-1.038-7.769v-18.355c0-1.223-0.105-2.466-0.306-3.732c-0.207-1.263-0.551-2.404-1.041-3.425
				c-0.49-1.019-1.121-1.836-1.895-2.447c-0.777-0.611-1.777-0.917-3-0.917h-5.506v-8.81h9.178c1.548,0,3.076,0.366,4.589,1.102
				c1.506,0.734,2.876,1.855,4.099,3.365c1.223,1.51,2.22,3.447,2.997,5.812c0.774,2.366,1.162,5.181,1.162,8.443v16.396
				c0,4.487,1.019,7.995,3.06,10.524c2.038,2.529,4.443,3.793,7.22,3.793v9.543c-2.777,0-5.181,1.266-7.22,3.795
				c-2.041,2.529-3.06,6.036-3.06,10.522v19.333c0,2.61-0.388,4.914-1.162,6.914c-0.777,1.998-1.774,3.67-2.997,5.017
				c-1.223,1.345-2.592,2.365-4.099,3.059c-1.513,0.691-3.041,1.04-4.589,1.04h-9.178V1368.063z"/>
		</g>
	</g>
	<g>
		<path style="fill:#F2BB16;" d="M2056.64,1288.041h-261.667c-8.16,0-14.775-6.615-14.775-14.775v-171.003
			c0-8.16,6.615-14.774,14.775-14.774h261.667c8.16,0,14.775,6.615,14.775,14.774v171.003
			C2071.415,1281.426,2064.8,1288.041,2056.64,1288.041z"/>
		<path style="fill:#F9E181;" d="M2072.215,1288.041h-261.667c-8.16,0-14.774-6.615-14.774-14.775v-171.003
			c0-8.16,6.615-14.774,14.774-14.774h261.667c8.16,0,14.775,6.615,14.775,14.774v171.003
			C2086.989,1281.426,2080.375,1288.041,2072.215,1288.041z"/>
		<g>
			<path style="fill:#FFFFFF;" d="M1811.348,1205.612v-14.603l84.303-45.624v22.304l-56.313,30.621l56.313,30.621v22.304
				L1811.348,1205.612z"/>
			<path style="fill:#FFFFFF;" d="M1921.305,1269.486l-13.828-6.082l51.979-157.362l13.828,6.49L1921.305,1269.486z"/>
			<path style="fill:#FFFFFF;" d="M2071.415,1191.009v14.603l-84.303,45.624v-22.304l56.313-30.621l-56.313-30.621v-22.304
				L2071.415,1191.009z"/>
		</g>
	</g>
	<path style="fill:#E5F0F8;" d="M341.224,541.893H250.79c-5.389,0-9.757,4.368-9.757,9.757v52.064c0,5.389,4.368,9.757,9.757,9.757
		h36.355v11.745h-23.926c-0.468,0-0.848,0.38-0.848,0.848v3.005c0,0.468,0.379,0.848,0.848,0.848h65.576
		c0.468,0,0.848-0.38,0.848-0.848v-3.005c0-0.468-0.379-0.848-0.848-0.848h-23.926v-11.745h36.355c5.389,0,9.757-4.368,9.757-9.757
		v-52.064C350.981,546.262,346.612,541.893,341.224,541.893z"/>
	<g>
		<path style="fill:#FFFFFF;" d="M743.584,601.503v-7.744l44.705-24.194v11.828l-29.862,16.238l29.862,16.238v11.828
			L743.584,601.503z"/>
		<path style="fill:#FFFFFF;" d="M801.893,635.375l-7.333-3.225l27.564-83.447l7.333,3.442L801.893,635.375z"/>
		<path style="fill:#FFFFFF;" d="M881.494,593.759v7.744l-44.705,24.194v-11.828l29.862-16.238l-29.862-16.238v-11.828
			L881.494,593.759z"/>
	</g>
	<g>
		<path style="fill:#E5F0F8;" d="M2028.572,857.195c-4.145-2.905-8.699-5.03-13.445-6.377c-0.845,5.114-5.42,8.882-10.717,8.612
			c-5.296-0.27-9.452-4.471-9.772-9.645c-4.845,0.845-9.591,2.496-14.011,4.963c3.011,4.219,2.457,10.11-1.485,13.669
			c-3.942,3.559-9.859,3.511-13.749,0.086c-2.905,4.145-5.03,8.699-6.364,13.433c5.114,0.845,8.87,5.407,8.6,10.703
			c-0.27,5.296-4.485,9.464-9.658,9.784c0.857,4.858,2.508,9.604,4.975,14.024c4.207-3.025,10.111-2.482,13.682,1.473
			c3.559,3.942,3.51,9.884,0.072,13.761c4.146,2.905,8.699,5.03,13.433,6.364c0.845-5.114,5.42-8.882,10.717-8.612
			c5.296,0.27,9.452,4.471,9.772,9.645c4.845-0.845,9.591-2.496,14.011-4.963c-3.011-4.219-2.456-10.11,1.485-13.669
			c3.942-3.559,9.859-3.511,13.749-0.086c2.905-4.145,5.03-8.699,6.364-13.433c-5.114-0.846-8.87-5.407-8.6-10.703
			c0.27-5.296,4.485-9.464,9.658-9.784c-0.845-4.845-2.496-9.591-4.963-14.011c-4.232,3.023-10.123,2.469-13.682-1.473
			C2025.073,867.002,2025.121,861.084,2028.572,857.195z M2018.922,879.734c8.116,8.989,7.42,22.863-1.582,30.991
			s-22.875,7.407-30.991-1.582c-8.128-9.002-7.432-22.877,1.57-31.004C1996.922,870.011,2010.795,870.732,2018.922,879.734z"/>
		<path style="fill:#E5F0F8;" d="M1983.117,994.383c-5.946,12.004-20.501,16.931-32.523,10.976
			c-12.022-5.955-16.922-20.519-10.977-32.523c5.955-12.022,20.51-16.949,32.532-10.994
			C1984.171,967.797,1989.072,982.361,1983.117,994.383z M2010.225,995.143c1.302-5.446,1.636-10.994,1.092-16.424
			c-5.605,1.21-11.341-1.963-13.217-7.521c-1.876-5.558,0.756-11.541,5.948-13.975c-2.84-4.64-6.468-8.851-10.803-12.394
			c-3.115,4.813-9.401,6.639-14.665,4.031c-5.264-2.607-7.621-8.714-5.68-14.109c-5.446-1.302-10.994-1.636-16.406-1.083
			c1.21,5.605-1.955,11.324-7.513,13.199c-5.558,1.876-11.559-0.764-13.992-5.956c-4.649,2.858-8.86,6.486-12.403,10.821
			c4.822,3.097,6.665,9.392,4.049,14.674c-2.608,5.264-8.741,7.63-14.126,5.671c-1.302,5.446-1.636,10.994-1.083,16.406
			c5.605-1.21,11.341,1.963,13.217,7.521c1.876,5.558-0.755,11.541-5.948,13.975c2.84,4.64,6.468,8.851,10.803,12.394
			c3.115-4.813,9.401-6.639,14.665-4.031c5.264,2.607,7.621,8.714,5.68,14.109c5.446,1.302,10.994,1.636,16.406,1.084
			c-1.21-5.605,1.955-11.324,7.513-13.199c5.558-1.876,11.559,0.764,13.992,5.956c4.64-2.84,8.851-6.468,12.394-10.803
			c-4.831-3.124-6.656-9.41-4.049-14.674C1998.715,995.532,2004.822,993.175,2010.225,995.143z"/>
	</g>
</g>
</svg>
